<svg xmlns="http://www.w3.org/2000/svg" width="24" height="24" viewBox="0 0 24 24" fill="none">
  <path d="M14.653 19C14.9161 18.9999 15.1733 18.9179 15.3921 18.7643C15.6109 18.6106 15.7814 18.3922 15.8821 18.1368C15.9828 17.8813 16.0091 17.6002 15.9578 17.329C15.9065 17.0578 15.7798 16.8087 15.5938 16.6131L11.2119 12.0086L15.5938 7.40405C15.7209 7.27506 15.8222 7.12077 15.892 6.95017C15.9617 6.77958 15.9984 6.5961 15.9999 6.41043C16.0015 6.22477 15.9678 6.04064 15.9009 5.8688C15.834 5.69696 15.7352 5.54084 15.6103 5.40955C15.4853 5.27826 15.3368 5.17443 15.1732 5.10412C15.0097 5.03382 14.8345 4.99844 14.6578 5.00005C14.4811 5.00167 14.3065 5.04024 14.1441 5.11352C13.9818 5.1868 13.835 5.29333 13.7122 5.42688L8.3896 11.02C8.14014 11.2822 8 11.6378 8 12.0086C8 12.3794 8.14014 12.735 8.3896 12.9972L13.7122 18.5903C13.9617 18.8526 14.3001 18.9999 14.653 19Z" fill="#1F2A37"/>
</svg>