<svg xmlns="http://www.w3.org/2000/svg" width="118" height="118" viewBox="0 0 118 118" fill="none">
  <mask id="path-1-inside-1_1933_34295" fill="white">
    <path d="M60.4982 5.02079C60.5748 2.26043 62.8794 0.0629339 65.6234 0.372915C75.7356 1.51528 85.4113 5.25841 93.6889 11.275C103.319 18.2744 110.606 28.0232 114.593 39.2405C118.58 50.4579 119.08 62.6189 116.028 74.1258C113.405 84.017 108.262 93.0271 101.139 100.295C99.2062 102.268 96.0316 102.018 94.2301 99.9247L81.5081 85.1463C79.7065 83.0536 79.9826 79.9189 81.7415 77.7902C84.4409 74.5231 86.4175 70.6969 87.514 66.5629C89.04 60.8094 88.7899 54.7289 86.7964 49.1202C84.8029 43.5116 81.1593 38.6372 76.3444 35.1375C72.8848 32.6228 68.9367 30.9025 64.781 30.072C62.0731 29.5308 59.8806 27.2736 59.9572 24.5133L60.4982 5.02079Z"/>
  </mask>
  <path d="M60.4982 5.02079C60.5748 2.26043 62.8794 0.0629339 65.6234 0.372915C75.7356 1.51528 85.4113 5.25841 93.6889 11.275C103.319 18.2744 110.606 28.0232 114.593 39.2405C118.58 50.4579 119.08 62.6189 116.028 74.1258C113.405 84.017 108.262 93.0271 101.139 100.295C99.2062 102.268 96.0316 102.018 94.2301 99.9247L81.5081 85.1463C79.7065 83.0536 79.9826 79.9189 81.7415 77.7902C84.4409 74.5231 86.4175 70.6969 87.514 66.5629C89.04 60.8094 88.7899 54.7289 86.7964 49.1202C84.8029 43.5116 81.1593 38.6372 76.3444 35.1375C72.8848 32.6228 68.9367 30.9025 64.781 30.072C62.0731 29.5308 59.8806 27.2736 59.9572 24.5133L60.4982 5.02079Z" fill="#7354E8" stroke="white" stroke-width="4" mask="url(#path-1-inside-1_1933_34295)"/>
  <mask id="path-2-inside-2_1933_34295" fill="white">
    <path d="M94.0122 100.111C95.8027 102.214 95.561 105.389 93.3147 106.995C86.9224 111.565 79.667 114.822 71.9685 116.557C62.6403 118.659 52.941 118.462 43.7058 115.983C34.4706 113.505 25.9763 108.818 18.9541 102.328C11.932 95.8379 6.59255 87.7383 3.3955 78.7265C0.19846 69.7148 -0.760363 60.061 0.601599 50.5964C1.96356 41.1319 5.60549 32.1402 11.2138 24.3955C16.8221 16.6509 24.2288 10.3854 32.796 6.1385C39.8664 2.63358 47.5525 0.590272 55.3959 0.110255C58.1521 -0.0584311 60.3407 2.25449 60.2755 5.01515L59.8149 24.5097C59.7497 27.2703 57.4442 29.412 54.7121 29.8134C51.6578 30.2621 48.6824 31.189 45.898 32.5693C41.6144 34.6927 37.9111 37.8254 35.1069 41.6978C32.3028 45.5701 30.4818 50.066 29.8008 54.7982C29.1198 59.5305 29.5992 64.3574 31.1978 68.8633C32.7963 73.3692 35.466 77.419 38.9771 80.6641C42.4882 83.9092 46.7353 86.2523 51.3529 87.4916C55.9705 88.731 60.8202 88.8295 65.4843 87.7786C68.516 87.0955 71.4103 85.94 74.0645 84.3636C76.4388 82.9534 79.5785 83.1633 81.3689 85.2656L94.0122 100.111Z"/>
  </mask>
  <path d="M94.0122 100.111C95.8027 102.214 95.561 105.389 93.3147 106.995C86.9224 111.565 79.667 114.822 71.9685 116.557C62.6403 118.659 52.941 118.462 43.7058 115.983C34.4706 113.505 25.9763 108.818 18.9541 102.328C11.932 95.8379 6.59255 87.7383 3.3955 78.7265C0.19846 69.7148 -0.760363 60.061 0.601599 50.5964C1.96356 41.1319 5.60549 32.1402 11.2138 24.3955C16.8221 16.6509 24.2288 10.3854 32.796 6.1385C39.8664 2.63358 47.5525 0.590272 55.3959 0.110255C58.1521 -0.0584311 60.3407 2.25449 60.2755 5.01515L59.8149 24.5097C59.7497 27.2703 57.4442 29.412 54.7121 29.8134C51.6578 30.2621 48.6824 31.189 45.898 32.5693C41.6144 34.6927 37.9111 37.8254 35.1069 41.6978C32.3028 45.5701 30.4818 50.066 29.8008 54.7982C29.1198 59.5305 29.5992 64.3574 31.1978 68.8633C32.7963 73.3692 35.466 77.419 38.9771 80.6641C42.4882 83.9092 46.7353 86.2523 51.3529 87.4916C55.9705 88.731 60.8202 88.8295 65.4843 87.7786C68.516 87.0955 71.4103 85.94 74.0645 84.3636C76.4388 82.9534 79.5785 83.1633 81.3689 85.2656L94.0122 100.111Z" fill="#E5E7EB" stroke="white" stroke-width="4" mask="url(#path-2-inside-2_1933_34295)"/>
</svg>