<svg width="24" height="24" viewBox="0 0 24 24" fill="none" xmlns="http://www.w3.org/2000/svg">
<path d="M3.57474 7.96623L11.5131 11.996C11.6645 12.0722 11.8326 12.112 12.0032 12.112C12.1738 12.112 12.3418 12.0722 12.4932 11.996L20.4316 7.96623C20.6028 7.87932 20.7462 7.7486 20.8463 7.58825C20.9464 7.4279 20.9993 7.24403 20.9993 7.05659C20.9993 6.86915 20.9464 6.68528 20.8463 6.52493C20.7462 6.36458 20.6028 6.23386 20.4316 6.14695L12.4932 2.11721C12.3417 2.04022 12.1732 2 12.0021 2C11.8311 2 11.6625 2.04022 11.511 2.11721L3.57262 6.14695C3.40141 6.23386 3.258 6.36458 3.15793 6.52493C3.05786 6.68528 3.00496 6.86915 3.00496 7.05659C3.00496 7.24403 3.05786 7.4279 3.15793 7.58825C3.258 7.7486 3.40141 7.87932 3.57262 7.96623H3.57474Z" fill="#D3C4F9"/>
<path d="M19.9416 10.1664C19.6608 10.1664 19.3916 10.2746 19.1931 10.4671C18.9946 10.6597 18.8831 10.9208 18.8831 11.1931V11.3789L12.0032 14.8697L5.12325 11.3789V11.1931C5.12325 10.9208 5.01173 10.6597 4.81323 10.4671C4.61474 10.2746 4.34552 10.1664 4.0648 10.1664C3.78408 10.1664 3.51486 10.2746 3.31636 10.4671C3.11786 10.6597 3.00635 10.9208 3.00635 11.1931V12.0001C3.00632 12.1875 3.05917 12.3713 3.15917 12.5317C3.25918 12.692 3.40253 12.8228 3.57368 12.9097L11.5121 16.9395C11.6636 17.0164 11.8321 17.0567 12.0032 17.0567C12.1742 17.0567 12.3428 17.0164 12.4943 16.9395L20.4327 12.9097C20.6038 12.8228 20.7472 12.692 20.8472 12.5317C20.9472 12.3713 21 12.1875 21 12.0001V11.1931C21 10.9208 20.8885 10.6597 20.69 10.4671C20.4915 10.2746 20.2223 10.1664 19.9416 10.1664Z" fill="#D3C4F9"/>
<path d="M19.9352 15.1099C19.6545 15.1099 19.3853 15.2181 19.1868 15.4106C18.9883 15.6032 18.8768 15.8643 18.8768 16.1366V16.3224L11.9968 19.8131L5.1169 16.3224V16.1366C5.1169 15.8643 5.00539 15.6032 4.80689 15.4106C4.60839 15.2181 4.33917 15.1099 4.05845 15.1099C3.77773 15.1099 3.50851 15.2181 3.31001 15.4106C3.11152 15.6032 3 15.8643 3 16.1366V16.9446C2.99997 17.132 3.05282 17.3158 3.15283 17.4762C3.25283 17.6365 3.39618 17.7673 3.56733 17.8542L11.5057 21.884C11.6575 21.9602 11.8259 22 11.9968 22C12.1677 22 12.3362 21.9602 12.4879 21.884L20.4263 17.8542C20.5975 17.7673 20.7408 17.6365 20.8408 17.4762C20.9408 17.3158 20.9937 17.132 20.9937 16.9446V16.1366C20.9937 15.8643 20.8821 15.6032 20.6836 15.4106C20.4851 15.2181 20.2159 15.1099 19.9352 15.1099Z" fill="#D3C4F9"/>
</svg>
