<svg width="28" height="28" viewBox="0 0 28 28" fill="none" xmlns="http://www.w3.org/2000/svg">
<path fill-rule="evenodd" clip-rule="evenodd" d="M4.6665 2.33398C3.73825 2.33398 2.84801 2.70273 2.19163 3.35911C1.53525 4.01549 1.1665 4.90573 1.1665 5.83398V22.1673C1.1665 23.0956 1.53525 23.9858 2.19163 24.6422C2.84801 25.2986 3.73825 25.6673 4.6665 25.6673H13.9998C14.9281 25.6673 15.8183 25.2986 16.4747 24.6422C17.1311 23.9858 17.4998 23.0956 17.4998 22.1673V5.83398C17.4998 4.90573 17.1311 4.01549 16.4747 3.35911C15.8183 2.70273 14.9281 2.33398 13.9998 2.33398H4.6665ZM19.0083 8.50915C19.2271 8.29044 19.5238 8.16757 19.8332 8.16757C20.1425 8.16757 20.4392 8.29044 20.658 8.50915L25.3247 13.1758C25.5434 13.3946 25.6663 13.6913 25.6663 14.0007C25.6663 14.31 25.5434 14.6067 25.3247 14.8255L20.658 19.4922C20.438 19.7047 20.1433 19.8223 19.8374 19.8196C19.5315 19.8169 19.2389 19.6943 19.0225 19.4779C18.8062 19.2616 18.6835 18.969 18.6809 18.6631C18.6782 18.3572 18.7958 18.0625 19.0083 17.8425L21.6835 15.1673H11.6665C11.3571 15.1673 11.0603 15.0444 10.8415 14.8256C10.6228 14.6068 10.4998 14.3101 10.4998 14.0007C10.4998 13.6912 10.6228 13.3945 10.8415 13.1757C11.0603 12.9569 11.3571 12.834 11.6665 12.834H21.6835L19.0083 10.1588C18.7896 9.94004 18.6668 9.64334 18.6668 9.33398C18.6668 9.02463 18.7896 8.72793 19.0083 8.50915Z" fill="#D3C4F9"/>
</svg>
