<svg width="30" height="30" viewBox="0 0 30 30" fill="none" xmlns="http://www.w3.org/2000/svg">
<path d="M24.5869 15.057C23.6738 13.9907 23.2588 13.0653 23.2588 11.4954V10.9629C23.2588 8.91582 22.7892 7.59895 21.7656 6.28083C20.1878 4.23377 17.5317 3 14.9315 3H14.8197C12.2742 3 9.70133 4.17712 8.09624 6.13983C7.01666 7.48565 6.4924 8.86042 6.4924 10.9629V11.4954C6.4924 13.0653 6.10479 13.9907 5.16311 15.057C4.47238 15.8426 4.25 16.851 4.25 17.945C4.25 19.0378 4.61027 20.0752 5.32958 20.9174C6.27002 21.9271 7.59807 22.5717 8.95469 22.6837C10.9188 22.9078 12.8829 22.9922 14.8756 22.9922C16.8671 22.9922 18.8324 22.8512 20.7965 22.6837C22.1519 22.5717 23.48 21.9271 24.4217 20.9174C25.141 20.0752 25.5 19.0378 25.5 17.945C25.5 16.851 25.2789 15.8426 24.5869 15.057Z" fill="#D3C4F9"/>
<path d="M12.3287 23.7905C11.7945 23.9139 11.2168 24.2022 11.2168 24.8317C11.2479 25.431 11.5994 25.9622 12.0864 26.2984C12.715 26.7906 13.4542 27.1016 14.2282 27.2136C14.6407 27.2703 15.0606 27.269 15.4879 27.2136C16.2606 27.1016 16.9998 26.7906 17.6297 26.2996C18.1154 25.9622 18.467 25.431 18.4981 24.8317C18.4981 24.2022 17.9204 23.9139 17.3862 23.7905C16.7613 23.6584 12.9536 23.6584 12.3287 23.7905Z" fill="#F0EFFF"/>
</svg>
