<svg xmlns="http://www.w3.org/2000/svg" width="48" height="48" viewBox="0 0 18 18" fill="none">
<g clip-path="url(#clip0_1045_4962)">
    <path d="M17.8242 9.20731C17.8242 8.59552 17.7746 7.98041 17.6688 7.37854H9.17969V10.8443H14.041C13.8393 11.962 13.1911 12.9508 12.242 13.5792V15.8279H15.1422C16.8453 14.2604 17.8242 11.9455 17.8242 9.20731Z" fill="#4285F4"/>
    <path d="M9.18032 18.0006C11.6077 18.0006 13.6547 17.2036 15.1461 15.8279L12.2459 13.5792C11.439 14.1281 10.3973 14.439 9.18363 14.439C6.83566 14.439 4.84484 12.8549 4.13053 10.7252H1.1377V13.0434C2.66553 16.0826 5.77742 18.0006 9.18032 18.0006Z" fill="#34A853"/>
    <path d="M4.12659 10.7252C3.74959 9.60745 3.74959 8.39709 4.12659 7.27933V4.96112H1.13706C-0.139438 7.5042 -0.139438 10.5003 1.13706 13.0434L4.12659 10.7252Z" fill="#FBBC04"/>
    <path d="M9.18032 3.56224C10.4634 3.5424 11.7036 4.02523 12.6328 4.9115L15.2024 2.34196C13.5753 0.814129 11.4159 -0.0258495 9.18032 0.000606499C5.77742 0.000606499 2.66553 1.91867 1.1377 4.96111L4.12722 7.27931C4.83823 5.1463 6.83235 3.56224 9.18032 3.56224Z" fill="#EA4335"/>
</g>
<defs>
    <clipPath id="clip0_1045_4962">
    <rect width="18" height="18" fill="white"/>
    </clipPath>
</defs>
</svg>