<svg xmlns="http://www.w3.org/2000/svg" width="14" height="14" viewBox="0 0 14 14" fill="none">
  <mask id="path-1-inside-1_6028_3004" fill="white">
    <path fill-rule="evenodd" clip-rule="evenodd" d="M11.6957 3.70495C11.8269 3.83622 11.9006 4.01424 11.9006 4.19985C11.9006 4.38547 11.8269 4.56348 11.6957 4.69475L6.09567 10.2948C5.9644 10.426 5.78639 10.4997 5.60077 10.4997C5.41516 10.4997 5.23714 10.426 5.10587 10.2948L2.30587 7.49475C2.17836 7.36273 2.10781 7.18591 2.1094 7.00237C2.111 6.81883 2.18461 6.64326 2.3144 6.51348C2.44419 6.38369 2.61975 6.31007 2.80329 6.30848C2.98683 6.30688 3.16365 6.37744 3.29567 6.50495L5.60077 8.81005L10.7059 3.70495C10.8371 3.57372 11.0152 3.5 11.2008 3.5C11.3864 3.5 11.5644 3.57372 11.6957 3.70495Z"/>
  </mask>
  <path fill-rule="evenodd" clip-rule="evenodd" d="M11.6957 3.70495C11.8269 3.83622 11.9006 4.01424 11.9006 4.19985C11.9006 4.38547 11.8269 4.56348 11.6957 4.69475L6.09567 10.2948C5.9644 10.426 5.78639 10.4997 5.60077 10.4997C5.41516 10.4997 5.23714 10.426 5.10587 10.2948L2.30587 7.49475C2.17836 7.36273 2.10781 7.18591 2.1094 7.00237C2.111 6.81883 2.18461 6.64326 2.3144 6.51348C2.44419 6.38369 2.61975 6.31007 2.80329 6.30848C2.98683 6.30688 3.16365 6.37744 3.29567 6.50495L5.60077 8.81005L10.7059 3.70495C10.8371 3.57372 11.0152 3.5 11.2008 3.5C11.3864 3.5 11.5644 3.57372 11.6957 3.70495Z" fill="#1F2A37"/>
  <path d="M11.6957 3.70495L12.7565 2.64445L12.7562 2.64413L11.6957 3.70495ZM11.9006 4.19985H13.4006H11.9006ZM11.6957 4.69475L12.7563 5.75541L12.7565 5.75525L11.6957 4.69475ZM6.09567 10.2948L7.15617 11.3556L7.15633 11.3554L6.09567 10.2948ZM5.10587 10.2948L4.04521 11.3554L4.04537 11.3556L5.10587 10.2948ZM2.30587 7.49475L1.22694 8.53682L1.236 8.54619L1.24521 8.55541L2.30587 7.49475ZM3.29567 6.50495L4.35633 5.44429L4.34712 5.43507L4.33774 5.42602L3.29567 6.50495ZM5.60077 8.81005L4.54011 9.87071L5.60077 10.9314L6.66143 9.87071L5.60077 8.81005ZM10.7059 3.70495L9.64537 2.64413L9.64521 2.64429L10.7059 3.70495ZM11.2008 3.5V5V3.5ZM10.6349 4.76545C10.4849 4.61543 10.4006 4.41198 10.4006 4.19985H13.4006C13.4006 3.61649 13.1689 3.05701 12.7565 2.64445L10.6349 4.76545ZM10.4006 4.19985C10.4006 3.98772 10.4849 3.78427 10.6349 3.63425L12.7565 5.75525C13.1689 5.34269 13.4006 4.78321 13.4006 4.19985H10.4006ZM10.635 3.63409L5.03501 9.23409L7.15633 11.3554L12.7563 5.75541L10.635 3.63409ZM5.03517 9.23393C5.18519 9.08395 5.38864 8.9997 5.60077 8.9997V11.9997C6.18414 11.9997 6.74361 11.768 7.15617 11.3556L5.03517 9.23393ZM5.60077 8.9997C5.81291 8.9997 6.01635 9.08395 6.16637 9.23393L4.04537 11.3556C4.45793 11.768 5.01741 11.9997 5.60077 11.9997V8.9997ZM6.16653 9.23409L3.36653 6.43409L1.24521 8.55541L4.04521 11.3554L6.16653 9.23409ZM3.38481 6.45268C3.53053 6.60356 3.61117 6.80565 3.60934 7.0154L0.609458 6.98934C0.604446 7.56617 0.826194 8.12189 1.22694 8.53682L3.38481 6.45268ZM3.60934 7.0154C3.60752 7.22516 3.52339 7.42581 3.37506 7.57414L1.25374 5.45282C0.845842 5.86072 0.614471 6.4125 0.609458 6.98934L3.60934 7.0154ZM3.37506 7.57414C3.22673 7.72246 3.02608 7.8066 2.81633 7.80842L2.79026 4.80854C2.21343 4.81355 1.66164 5.04492 1.25374 5.45282L3.37506 7.57414ZM2.81633 7.80842C2.60657 7.81025 2.40449 7.72961 2.25361 7.58388L4.33774 5.42602C3.92282 5.02527 3.36709 4.80352 2.79026 4.80854L2.81633 7.80842ZM2.23501 7.56561L4.54011 9.87071L6.66143 7.74939L4.35633 5.44429L2.23501 7.56561ZM6.66143 9.87071L11.7665 4.76561L9.64521 2.64429L4.54011 7.74939L6.66143 9.87071ZM11.7664 4.76577C11.6164 4.91575 11.4129 5 11.2008 5V2C10.6174 2 10.0579 2.23169 9.64537 2.64413L11.7664 4.76577ZM11.2008 5C10.9886 5 10.7852 4.91575 10.6352 4.76577L12.7562 2.64413C12.3436 2.23169 11.7841 2 11.2008 2V5Z" fill="white" mask="url(#path-1-inside-1_6028_3004)"/>
</svg>