<svg xmlns="http://www.w3.org/2000/svg" width="16" height="16" viewBox="0 0 16 16" fill="none">
  <path d="M13.9328 2.06807C13.6327 1.76811 13.2258 1.59961 12.8016 1.59961C12.3773 1.59961 11.9704 1.76811 11.6704 2.06807L5.60156 8.13687V10.3993H7.86396L13.9328 4.33047C14.2327 4.03042 14.4012 3.62353 14.4012 3.19927C14.4012 2.775 14.2327 2.36811 13.9328 2.06807Z" fill="#7354E8"/>
  <path fill-rule="evenodd" clip-rule="evenodd" d="M1.60156 4.79922C1.60156 4.37487 1.77013 3.96791 2.07019 3.66785C2.37025 3.36779 2.77722 3.19922 3.20156 3.19922H6.40156C6.61374 3.19922 6.81722 3.2835 6.96725 3.43353C7.11728 3.58356 7.20156 3.78705 7.20156 3.99922C7.20156 4.21139 7.11728 4.41487 6.96725 4.5649C6.81722 4.71493 6.61374 4.79922 6.40156 4.79922H3.20156V12.7992H11.2016V9.59922C11.2016 9.38705 11.2858 9.18356 11.4359 9.03353C11.5859 8.8835 11.7894 8.79922 12.0016 8.79922C12.2137 8.79922 12.4172 8.8835 12.5672 9.03353C12.7173 9.18356 12.8016 9.38705 12.8016 9.59922V12.7992C12.8016 13.2236 12.633 13.6305 12.3329 13.9306C12.0329 14.2306 11.6259 14.3992 11.2016 14.3992H3.20156C2.77722 14.3992 2.37025 14.2306 2.07019 13.9306C1.77013 13.6305 1.60156 13.2236 1.60156 12.7992V4.79922Z" fill="#7354E8"/>
</svg>