<svg xmlns="http://www.w3.org/2000/svg" width="20" height="20" viewBox="0 0 20 20" fill="none">
  <path d="M16.4286 8.84608H6.15849L8.61514 6.17145C8.71747 6.06385 8.79909 5.93514 8.85524 5.79283C8.91139 5.65052 8.94094 5.49746 8.94218 5.34258C8.94342 5.18771 8.91631 5.03411 8.86244 4.89076C8.80857 4.74741 8.72902 4.61718 8.62842 4.50766C8.52783 4.39814 8.40821 4.31152 8.27654 4.25288C8.14487 4.19423 8.0038 4.16471 7.86154 4.16606C7.71929 4.16741 7.5787 4.19958 7.44799 4.26071C7.31728 4.32185 7.19906 4.41071 7.10023 4.52211L2.81476 9.18785C2.71498 9.2962 2.63582 9.42492 2.58181 9.56663C2.5278 9.70834 2.5 9.86026 2.5 10.0137C2.5 10.1671 2.5278 10.319 2.58181 10.4607C2.63582 10.6024 2.71498 10.7312 2.81476 10.8395L7.10023 15.5052C7.30229 15.7177 7.57292 15.8353 7.85383 15.8326C8.13474 15.83 8.40345 15.7073 8.60209 15.491C8.80073 15.2748 8.91341 14.9822 8.91585 14.6764C8.91829 14.3705 8.8103 14.0759 8.61514 13.8559L6.15849 11.1789H16.4286C16.7128 11.1789 16.9853 11.0561 17.1862 10.8373C17.3871 10.6186 17.5 10.3219 17.5 10.0125C17.5 9.70316 17.3871 9.40647 17.1862 9.18772C16.9853 8.96897 16.7128 8.84608 16.4286 8.84608Z" fill="#111928"/>
</svg>