<svg xmlns="http://www.w3.org/2000/svg" width="16" height="16" viewBox="0 0 16 16" fill="none">
  <path d="M11.4202 10.0343L11.4202 10.0343C11.4995 10.1098 11.6122 10.1563 11.7345 10.1564L11.4202 10.0343ZM11.4202 10.0343L8.35043 7.11306L8.00575 6.78505M11.4202 10.0343L8.00575 6.78505M8.00575 6.78505L7.66106 7.11306M8.00575 6.78505L7.66106 7.11306M7.66106 7.11306L4.5913 10.0343L4.59125 10.0342M7.66106 7.11306L4.59125 10.0342M4.59125 10.0342L4.58506 10.0403M4.59125 10.0342L4.58506 10.0403M4.58506 10.0403C4.54635 10.0785 4.49869 10.1102 4.4442 10.1325C4.38968 10.1548 4.3302 10.1668 4.26942 10.1673C4.20865 10.1678 4.1489 10.1568 4.09387 10.1353C4.03887 10.1139 3.9905 10.0829 3.95097 10.0453C3.91149 10.0077 3.8817 9.96442 3.86202 9.91864C3.84236 9.87293 3.83283 9.82489 3.83327 9.77707C3.8337 9.72925 3.84411 9.6813 3.86466 9.6358C3.88523 9.59022 3.9159 9.54729 3.95619 9.51026L3.95624 9.51032M4.58506 10.0403L3.95624 9.51032M3.95624 9.51032L3.96253 9.50434M3.95624 9.51032L3.96253 9.50434M3.96253 9.50434L7.6913 5.95598M3.96253 9.50434L7.6913 5.95598M7.6913 5.95598C7.77067 5.88047 7.88336 5.83398 8.00575 5.83398C8.12813 5.83398 8.24082 5.88047 8.32019 5.95598L12.0489 9.50429C12.1076 9.56017 12.1446 9.62829 12.1593 9.69857L12.6487 9.5963M7.6913 5.95598L12.6487 9.5963M12.6487 9.5963L12.1593 9.69857C12.1739 9.76863 12.1666 9.84155 12.1372 9.90923M12.6487 9.5963L12.1372 9.90923M12.1372 9.90923C12.1076 9.97724 12.0556 10.0394 11.984 10.085M12.1372 9.90923L11.984 10.085M11.984 10.085C11.9123 10.1306 11.8254 10.1564 11.7347 10.1564L11.984 10.085Z" fill="#6B7280" stroke="#6B7280"/>
</svg>