<svg width="30" height="30" viewBox="0 0 30 30" fill="none" xmlns="http://www.w3.org/2000/svg">
<path d="M23.8235 8.75H6.17647C5.86445 8.75 5.56521 8.6183 5.34458 8.38388C5.12395 8.14946 5 7.83152 5 7.5C5 7.16848 5.12395 6.85054 5.34458 6.61612C5.56521 6.3817 5.86445 6.25 6.17647 6.25H23.8235C24.1355 6.25 24.4348 6.3817 24.6554 6.61612C24.8761 6.85054 25 7.16848 25 7.5C25 7.83152 24.8761 8.14946 24.6554 8.38388C24.4348 8.6183 24.1355 8.75 23.8235 8.75Z" fill="white"/>
<path d="M23.8235 16.25H6.17647C5.86445 16.25 5.56521 16.1183 5.34458 15.8839C5.12395 15.6495 5 15.3315 5 15C5 14.6685 5.12395 14.3505 5.34458 14.1161C5.56521 13.8817 5.86445 13.75 6.17647 13.75H23.8235C24.1355 13.75 24.4348 13.8817 24.6554 14.1161C24.8761 14.3505 25 14.6685 25 15C25 15.3315 24.8761 15.6495 24.6554 15.8839C24.4348 16.1183 24.1355 16.25 23.8235 16.25Z" fill="white"/>
<path d="M23.8235 23.75H6.17647C5.86445 23.75 5.56521 23.6183 5.34458 23.3839C5.12395 23.1495 5 22.8315 5 22.5C5 22.1685 5.12395 21.8505 5.34458 21.6161C5.56521 21.3817 5.86445 21.25 6.17647 21.25H23.8235C24.1355 21.25 24.4348 21.3817 24.6554 21.6161C24.8761 21.8505 25 22.1685 25 22.5C25 22.8315 24.8761 23.1495 24.6554 23.3839C24.4348 23.6183 24.1355 23.75 23.8235 23.75Z" fill="white"/>
</svg>
