<svg width="24" height="24" viewBox="0 0 24 24" fill="none" xmlns="http://www.w3.org/2000/svg">
<g id="plus-circle">
<path id="Vector" fill-rule="evenodd" clip-rule="evenodd" d="M11.9999 21.6004C14.546 21.6004 16.9878 20.589 18.7881 18.7886C20.5885 16.9883 21.5999 14.5465 21.5999 12.0004C21.5999 9.45431 20.5885 7.01252 18.7881 5.21217C16.9878 3.41182 14.546 2.40039 11.9999 2.40039C9.45382 2.40039 7.01203 3.41182 5.21168 5.21217C3.41133 7.01252 2.3999 9.45431 2.3999 12.0004C2.3999 14.5465 3.41133 16.9883 5.21168 18.7886C7.01203 20.589 9.45382 21.6004 11.9999 21.6004ZM13.1999 8.40039C13.1999 8.08213 13.0735 7.77691 12.8484 7.55186C12.6234 7.32682 12.3182 7.20039 11.9999 7.20039C11.6816 7.20039 11.3764 7.32682 11.1514 7.55186C10.9263 7.77691 10.7999 8.08213 10.7999 8.40039V10.8004H8.3999C8.08164 10.8004 7.77642 10.9268 7.55137 11.1519C7.32633 11.3769 7.1999 11.6821 7.1999 12.0004C7.1999 12.3187 7.32633 12.6239 7.55137 12.8489C7.77642 13.074 8.08164 13.2004 8.3999 13.2004H10.7999V15.6004C10.7999 15.9187 10.9263 16.2239 11.1514 16.4489C11.3764 16.674 11.6816 16.8004 11.9999 16.8004C12.3182 16.8004 12.6234 16.674 12.8484 16.4489C13.0735 16.2239 13.1999 15.9187 13.1999 15.6004V13.2004H15.5999C15.9182 13.2004 16.2234 13.074 16.4484 12.8489C16.6735 12.6239 16.7999 12.3187 16.7999 12.0004C16.7999 11.6821 16.6735 11.3769 16.4484 11.1519C16.2234 10.9268 15.9182 10.8004 15.5999 10.8004H13.1999V8.40039Z" fill="#7354E8"/>
</g>
</svg>
