<svg width="30" height="30" viewBox="0 0 30 30" fill="none" xmlns="http://www.w3.org/2000/svg">
<g clip-path="url(#clip0_1641_11004)">
<path d="M4.63477 21.8256C3.48047 25.3061 2.90039 26.4662 0 26.4662C9.85547 30.5268 11.5957 23.5658 11.5957 23.5658L8.69531 20.6654C8.69531 20.6654 5.79492 20.0912 4.63477 21.8256ZM29.5664 2.70059C28.7461 1.88028 27.3398 2.47208 27.3398 2.47208C25.2891 2.88224 13.916 14.2963 13.916 14.2963L17.9766 18.3568C17.9766 18.3568 29.3906 6.9838 29.8008 4.93302C29.7949 4.92716 30.3867 3.51505 29.5664 2.70059ZM9.85547 19.5111L12.7559 22.4115L16.8164 19.5111L12.7559 15.4506L9.85547 19.5111Z" fill="#7354E8"/>
</g>
<defs>
<clipPath id="clip0_1641_11004">
<rect width="30" height="30" fill="white"/>
</clipPath>
</defs>
</svg>
