<svg width="30" height="30" viewBox="0 0 30 30" fill="none" xmlns="http://www.w3.org/2000/svg">
<path d="M17.5 4.375C17.5 5.4125 16.6625 6.25 15.625 6.25C14.5875 6.25 13.75 5.4125 13.75 4.375C13.75 3.3375 14.5875 2.5 15.625 2.5C16.6625 2.5 17.5 3.3375 17.5 4.375ZM10.625 6.25C9.5875 6.25 8.75 7.0875 8.75 8.125C8.75 9.1625 9.5875 10 10.625 10C11.6625 10 12.5 9.1625 12.5 8.125C12.5 7.0875 11.6625 6.25 10.625 6.25ZM17.5 15L16.525 12.1875H20.225L22.925 10.8375C23.3875 10.625 23.575 10.05 23.3375 9.5875C23.2846 9.47637 23.21 9.37697 23.1181 9.29516C23.0261 9.21335 22.9187 9.15079 22.8022 9.11117C22.6857 9.07156 22.5624 9.05569 22.4397 9.0645C22.3169 9.07332 22.1972 9.10664 22.0875 9.1625L21.0625 9.675L20.45 8.625C20.0875 7.8125 19.2 7.35 18.325 7.55L15.2375 8.2125C14.375 8.4 13.75 9.1875 13.75 10.0875V10.9625L10.7125 12.9875H10.725C10.625 13.075 10.4875 13.1875 10.4125 13.3375L9.3 15.55L7.075 16.6625C6.6125 16.875 6.425 17.4625 6.6625 17.925C6.77563 18.1467 6.97198 18.3146 7.20859 18.3919C7.44519 18.4692 7.70278 18.4496 7.925 18.3375L10.7 16.95L12 14.375L13.75 16.25C12.5 20 3.75 25 3.75 25C3.75 25 8.75 27.5 15 27.5C21.25 27.5 26.25 25 26.25 25C26.25 25 20 20 17.5 15ZM21.0625 13.8625L20.6625 14.0625H19.1625L19.2375 14.2625C19.8875 15.55 20.8375 16.875 21.875 18.05L21.2125 13.7875L21.0625 13.8625Z" fill="#6B7280"/>
</svg>
