<svg width="26" height="24" viewBox="0 0 26 24" fill="none" xmlns="http://www.w3.org/2000/svg">
<path d="M3 0.750002L5.5 5.75H9.25L6.75 0.750002H9.25L11.75 5.75H15.5L13 0.750002H15.5L18 5.75H21.75L19.25 0.750002H23C23.6875 0.750002 24.2763 0.995002 24.7663 1.485C25.2563 1.975 25.5008 2.56334 25.5 3.25V20.75C25.5 21.4375 25.255 22.0263 24.765 22.5163C24.275 23.0063 23.6867 23.2508 23 23.25H3C2.3125 23.25 1.72375 23.005 1.23375 22.515C0.743752 22.025 0.499169 21.4367 0.500002 20.75V3.25C0.500002 2.5625 0.745002 1.97375 1.235 1.48375C1.725 0.993752 2.31334 0.749169 3 0.750002ZM8 19.5H18V18.8125C18 17.8958 17.5417 17.1563 16.625 16.5938C15.7083 16.0313 14.5 15.75 13 15.75C11.5 15.75 10.2917 16.0313 9.375 16.5938C8.45834 17.1563 8 17.8958 8 18.8125V19.5ZM13 14.5C13.6875 14.5 14.2763 14.255 14.7663 13.765C15.2563 13.275 15.5008 12.6867 15.5 12C15.5 11.3125 15.255 10.7238 14.765 10.2338C14.275 9.74375 13.6867 9.49917 13 9.5C12.3125 9.5 11.7238 9.745 11.2338 10.235C10.7438 10.725 10.4992 11.3133 10.5 12C10.5 12.6875 10.745 13.2763 11.235 13.7663C11.725 14.2563 12.3133 14.5008 13 14.5Z" fill="#6B7280"/>
</svg>
