<svg xmlns="http://www.w3.org/2000/svg" width="16" height="17" viewBox="0 0 16 17" fill="none">
<path d="M7.99995 9.67558L7.6464 9.32203L5.01205 6.68768C5.01203 6.68766 5.01202 6.68765 5.012 6.68763C4.95574 6.63142 4.87947 6.59985 4.79995 6.59985C4.72045 6.59985 4.64421 6.6314 4.58796 6.68757C4.58792 6.68761 4.58789 6.68765 4.58785 6.68768M7.99995 9.67558L4.58785 6.68768M7.99995 9.67558L8.3535 9.32203L10.9879 6.68763L10.988 6.68768L10.994 6.68143C11.0217 6.65278 11.0548 6.62992 11.0914 6.6142C11.128 6.59848 11.1673 6.5902 11.2072 6.58986C11.247 6.58951 11.2865 6.5971 11.3234 6.61218C11.3602 6.62727 11.3937 6.64954 11.4219 6.67771C11.4501 6.70588 11.4724 6.73937 11.4874 6.77624L11.9502 6.58691L11.4874 6.77625C11.5025 6.81312 11.5101 6.85262 11.5098 6.89245C11.5094 6.93228 11.5011 6.97165 11.4854 7.00825C11.4697 7.04485 11.4468 7.07796 11.4182 7.10563L11.4181 7.10558L11.412 7.11172L8.21205 10.3117C8.21203 10.3117 8.21202 10.3117 8.212 10.3117C8.15574 10.3679 8.07947 10.3995 7.99995 10.3995C7.92043 10.3995 7.84416 10.3679 7.7879 10.3117C7.78789 10.3117 7.78787 10.3117 7.78785 10.3117L4.58796 7.11177M7.99995 9.67558L4.58796 7.11177M4.58785 6.68768C4.53168 6.74393 4.50012 6.82018 4.50012 6.89967C4.50012 6.9792 4.5317 7.05547 4.5879 7.11172M4.58785 6.68768L4.5879 7.11172M4.5879 7.11172L4.58796 7.11177M4.5879 7.11172L4.58796 7.11177" fill="#7354E8" stroke="#7354E8"/>
</svg>