<svg xmlns="http://www.w3.org/2000/svg" width="16" height="16" viewBox="0 0 16 16" fill="none">
  <path d="M7.69598 10.045L7.69603 10.045C7.77551 10.1206 7.88848 10.1672 8.01129 10.1673L7.69598 10.045ZM7.69598 10.045L3.96265 6.4967L3.9627 6.49664M7.69598 10.045L3.9627 6.49664M3.9627 6.49664L3.95631 6.49078M3.9627 6.49664L3.95631 6.49078M3.95631 6.49078C3.91593 6.45371 3.88523 6.41078 3.86465 6.36525C3.8441 6.31979 3.8337 6.27191 3.83327 6.22419C3.83283 6.17647 3.84235 6.12851 3.86201 6.08285C3.8817 6.03711 3.91152 5.99382 3.95108 5.95622C3.99069 5.91857 4.03919 5.88751 4.09437 5.86605C4.14959 5.84458 4.20956 5.8335 4.27057 5.834C4.33157 5.8345 4.39127 5.84658 4.44597 5.86891C4.50064 5.89123 4.54843 5.92301 4.58722 5.96118L4.58717 5.96123M3.95631 6.49078L4.58717 5.96123M4.58717 5.96123L4.59346 5.96722M4.58717 5.96123L4.59346 5.96722M4.59346 5.96722L7.66693 8.88835L8.01139 9.21573M4.59346 5.96722L8.01139 9.21573M8.01139 9.21573L8.35584 8.88835M8.01139 9.21573L8.35584 8.88835M8.35584 8.88835L11.4256 5.97079C11.5056 5.89851 11.6171 5.85481 11.7372 5.8558C11.8587 5.85681 11.9701 5.9033 12.0488 5.97802C12.1266 6.05197 12.1657 6.14653 12.1666 6.23972C12.1674 6.33187 12.1308 6.42573 12.0564 6.50028L8.3268 10.045L8.32674 10.045M8.35584 8.88835L8.32674 10.045M8.32674 10.045C8.24726 10.1206 8.1343 10.1672 8.01149 10.1673L8.32674 10.045Z" fill="#6B7280" stroke="#6B7280"/>
</svg>