<svg xmlns="http://www.w3.org/2000/svg" width="16" height="17" viewBox="0 0 16 17" fill="none">
  <path d="M11.7346 11.1564C11.4874 11.1564 11.2503 11.0629 11.0755 10.8965L8.00575 7.97526L4.93599 10.8965C4.84999 10.9812 4.74713 11.0488 4.6334 11.0953C4.51966 11.1418 4.39734 11.1663 4.27356 11.1673C4.14978 11.1683 4.02703 11.1459 3.91246 11.1013C3.7979 11.0567 3.69382 10.9908 3.60629 10.9075C3.51876 10.8242 3.44954 10.7252 3.40267 10.6161C3.3558 10.5071 3.33221 10.3903 3.33329 10.2725C3.33436 10.1547 3.36008 10.0383 3.40893 9.93008C3.45779 9.82185 3.52881 9.72396 3.61784 9.64213L7.34668 6.09372C7.52149 5.92741 7.75856 5.83398 8.00575 5.83398C8.25293 5.83398 8.49 5.92741 8.66482 6.09372L12.3936 9.64213C12.524 9.76619 12.6127 9.92424 12.6487 10.0963C12.6846 10.2684 12.6662 10.4467 12.5956 10.6088C12.5251 10.7708 12.4056 10.9094 12.2524 11.0069C12.0991 11.1043 11.9189 11.1564 11.7346 11.1564Z" fill="white"/>
</svg>