<svg xmlns="http://www.w3.org/2000/svg" width="21" height="21" viewBox="0 0 21 21" fill="none">
  <path d="M11.7929 10.4994L11.4393 10.853L8.14639 14.1459C8.14638 14.1459 8.14636 14.146 8.14634 14.146C8.05264 14.2397 8 14.3669 8 14.4994C8 14.632 8.05266 14.7592 8.14639 14.8529C8.24015 14.9466 8.36725 14.9992 8.49979 14.9992C8.63234 14.9992 8.75947 14.9466 8.85323 14.8529L11.7929 10.4994ZM11.7929 10.4994L11.4393 10.1459L8.14994 6.85648C8.06043 6.76246 8.01096 6.63727 8.01209 6.50737C8.01323 6.37628 8.06582 6.25087 8.15852 6.15817C8.25123 6.06546 8.37663 6.01288 8.50773 6.01174C8.63763 6.01061 8.76281 6.06008 8.85683 6.14958L12.8532 10.1459C12.8532 10.1459 12.8532 10.146 12.8532 10.146C12.9469 10.2397 12.9996 10.3669 12.9996 10.4994C12.9996 10.632 12.9469 10.7591 12.8532 10.8529C12.8532 10.8529 12.8532 10.8529 12.8532 10.8529L8.85329 14.8528L11.7929 10.4994Z" fill="#7354E8" stroke="#7354E8"/>
</svg>