<svg xmlns="http://www.w3.org/2000/svg" width="16" height="17" viewBox="0 0 16 17" fill="none">
  <path fill-rule="evenodd" clip-rule="evenodd" d="M5.83384 12.2655C5.68386 12.1155 5.59961 11.9121 5.59961 11.6999C5.59961 11.4878 5.68386 11.2844 5.83384 11.1343L8.46824 8.49994L5.83384 5.86554C5.68811 5.71465 5.60748 5.51257 5.6093 5.30281C5.61112 5.09306 5.69526 4.89241 5.84358 4.74408C5.99191 4.59575 6.19256 4.51162 6.40232 4.5098C6.61208 4.50797 6.81416 4.58861 6.96504 4.73434L10.165 7.93434C10.315 8.08436 10.3993 8.2878 10.3993 8.49994C10.3993 8.71207 10.315 8.91551 10.165 9.06554L6.96504 12.2655C6.81502 12.4155 6.61157 12.4998 6.39944 12.4998C6.18731 12.4998 5.98386 12.4155 5.83384 12.2655Z" fill="#7354E8"/>
</svg>