<svg width="16" height="16" viewBox="0 0 16 16" fill="none" xmlns="http://www.w3.org/2000/svg">
<path id="Vector" d="M7.06055 4.93945L7.06061 4.93939L7.05436 4.93336C6.77145 4.66012 6.39255 4.50893 5.99925 4.51234C5.60596 4.51576 5.22974 4.67352 4.95163 4.95163C4.67352 5.22974 4.51576 5.60596 4.51234 5.99925C4.50893 6.39255 4.66012 6.77145 4.93336 7.05436L4.9333 7.05441L4.93945 7.06055L5.87889 8L4.94219 8.9367C4.80054 9.07439 4.68747 9.23872 4.60949 9.42025C4.53088 9.60326 4.4895 9.80009 4.48777 9.99925C4.48604 10.1984 4.52399 10.3959 4.59941 10.5803C4.67483 10.7646 4.78621 10.9321 4.92705 11.0729C5.06789 11.2138 5.23537 11.3252 5.41971 11.4006C5.60406 11.476 5.80157 11.514 6.00075 11.5122C6.19991 11.5105 6.39674 11.4691 6.57975 11.3905C6.76129 11.3125 6.92562 11.1994 7.06331 11.0578L8 10.1211L8.93945 11.0606L8.93939 11.0606L8.94564 11.0666C9.22855 11.3399 9.60745 11.4911 10.0007 11.4877C10.394 11.4842 10.7703 11.3265 11.0484 11.0484C11.3265 10.7703 11.4842 10.394 11.4877 10.0007C11.4911 9.60745 11.3399 9.22855 11.0666 8.94564L11.0667 8.94559L11.0606 8.93945L10.1211 8L11.0606 7.06055L11.0606 7.06061L11.0666 7.05436C11.3399 6.77145 11.4911 6.39255 11.4877 5.99925C11.4842 5.60596 11.3265 5.22974 11.0484 4.95163C10.7703 4.67352 10.394 4.51576 10.0007 4.51234C9.60745 4.50893 9.22855 4.66012 8.94564 4.93336L8.94559 4.9333L8.93945 4.93945L8 5.87889L7.06055 4.93945ZM13.3033 13.3033C11.8968 14.7098 9.98912 15.5 8 15.5C6.01088 15.5 4.10322 14.7098 2.6967 13.3033C1.29018 11.8968 0.5 9.98912 0.5 8C0.5 6.01088 1.29018 4.10322 2.6967 2.6967C4.10322 1.29018 6.01088 0.5 8 0.5C9.98912 0.5 11.8968 1.29018 13.3033 2.6967C14.7098 4.10322 15.5 6.01088 15.5 8C15.5 9.98912 14.7098 11.8968 13.3033 13.3033Z" fill="#7354E8" stroke="#7354E8"/>
</svg>
