<svg xmlns="http://www.w3.org/2000/svg" width="148" height="148" viewBox="0 0 148 148" fill="none">
  <ellipse cx="101.336" cy="29.9204" rx="9.38595" ry="17.6615" transform="rotate(33.1199 101.336 29.9204)" fill="#F0EFFF"/>
  <ellipse cx="81.3831" cy="29.1263" rx="9.10769" ry="17.6462" transform="rotate(-0.897765 81.3831 29.1263)" fill="#F0EFFF"/>
  <ellipse cx="82.1779" cy="33.9974" rx="4.87213" ry="9.13525" transform="rotate(-3.63519 82.1779 33.9974)" fill="#7254E8"/>
  <ellipse cx="98.9766" cy="34.1965" rx="4.87213" ry="9.13525" transform="rotate(31.2734 98.9766 34.1965)" fill="#7254E8"/>
  <ellipse cx="91.8889" cy="85.57" rx="49.3303" ry="46.8943" fill="#F0EFFF"/>
  <mask id="mask0_3086_14519" style="mask-type:alpha" maskUnits="userSpaceOnUse" x="42" y="38" width="100" height="95">
    <ellipse cx="91.887" cy="85.572" rx="49.3303" ry="46.8943" fill="#F0EFFF"/>
  </mask>
  <g mask="url(#mask0_3086_14519)">
    <ellipse cx="91.887" cy="85.572" rx="49.3303" ry="46.8943" fill="#F0EFFF"/>
    <circle opacity="0.4" cx="125.228" cy="87.6637" r="12.5231" fill="#D3C4F9"/>
    <circle opacity="0.4" cx="60.3356" cy="100.185" r="12.5231" fill="#D3C4F9"/>
  </g>
  <ellipse cx="91.9324" cy="92.1438" rx="5.71136" ry="4.87339" transform="rotate(-113.435 91.9324 92.1438)" fill="black"/>
  <ellipse cx="78.8193" cy="82.5256" rx="3.92008" ry="4.26312" transform="rotate(-9.90038 78.8193 82.5256)" fill="black"/>
  <ellipse cx="98.3095" cy="78.8752" rx="3.92008" ry="4.26312" transform="rotate(-9.90038 98.3095 78.8752)" fill="black"/>
  <path d="M44.6231 108.837L52.3926 111.418L48.4438 122.113L40.6743 119.532L44.6231 108.837Z" fill="#D3C4F9"/>
  <g opacity="0.5">
    <path d="M60.9666 108.895C46.2745 110.742 33.0712 100.6 31.4762 86.2439C29.8812 71.8874 40.4985 58.7523 55.1906 56.9058C69.8827 55.0594 83.086 65.2007 84.681 79.5573C86.276 93.9138 75.6587 107.049 60.9666 108.895Z" fill="#F0EFFF"/>
  </g>
  <g style="mix-blend-mode:screen" opacity="0.5">
    <path d="M67.1176 62.9717C66.9908 62.4895 66.6269 62.0775 66.102 61.9064C61.5022 60.3943 56.5625 60.2637 51.8139 61.5255C49.4162 62.1657 47.1343 63.1438 45.0386 64.4321C44.2781 64.898 44.0432 65.8615 44.5073 66.5889C44.9714 67.3162 45.9635 67.5262 46.7208 67.0571C48.5394 65.9376 50.5193 65.0895 52.6035 64.5343C56.7253 63.4361 61.012 63.5507 65.0055 64.8617C65.8401 65.1366 66.7645 64.6988 67.0697 63.8804C67.1838 63.5715 67.1926 63.2546 67.1179 62.9653L67.1176 62.9717Z" fill="white"/>
  </g>
  <path d="M69.1456 52.7099C86.0946 58.3805 94.878 76.4926 88.766 93.162C82.6547 109.836 63.9624 118.753 47.0134 113.083C30.0644 107.412 21.281 89.3002 27.3923 72.6263C33.5043 55.957 52.2012 47.0385 69.1456 52.7099ZM48.9929 107.687C62.9105 112.345 78.26 105.017 83.2767 91.3304C88.2973 77.6387 81.0837 62.7649 67.1668 58.1108C53.2492 53.4521 37.899 60.776 32.883 74.4669C27.8624 88.1586 35.0806 103.032 48.9929 107.687Z" fill="#7354E8" stroke="#6D4CED" stroke-width="1.8"/>
  <path d="M39.2768 116.832L51.1159 120.767L42.5197 144.129C42.0947 145.284 40.8086 145.909 39.6482 145.523L32.0085 142.984C30.8496 142.599 30.2547 141.352 30.6791 140.199L39.2768 116.832Z" fill="#563AC0"/>
  <path d="M26.3525 37.0409C23.4968 30.5891 24.3501 27.8481 26.5859 24.5196C28.1621 22.076 29.1775 19.697 28.087 17.3291C26.9556 14.7311 24.186 13.9526 21.6656 15.0493C19.7771 15.9187 18.4246 17.7269 18.5517 19.96C18.613 21.0362 18.2094 22.1833 17.2254 22.6236L13.5026 24.2893C12.4817 24.7461 11.2658 24.2784 10.9729 23.1989C9.22804 16.7661 12.9545 11.621 18.9862 8.92222C26.2023 5.69348 32.9755 7.16398 35.8339 13.5524C37.7434 17.82 36.7485 21.4935 34.2746 25.0528C32.1273 28.0934 31.5863 30.3532 33.1806 33.9857C33.3212 34.3 33.1804 34.6687 32.8662 34.8093L27.1761 37.3553C26.8618 37.4959 26.4931 37.3551 26.3525 37.0409ZM29.1177 45.3024C28.0013 42.9461 29.0991 40.1268 31.5419 39.0648C33.8322 38.009 36.6917 39.0577 37.7563 41.4372C38.8326 43.8426 37.709 46.6735 35.4071 47.7034C32.9759 48.7912 30.1423 47.7309 29.1177 45.3024Z" fill="#352991"/>
  <ellipse cx="31.3313" cy="127.362" rx="10.162" ry="12.5038" transform="rotate(13.5464 31.3313 127.362)" fill="#F0EFFF"/>
</svg>