<svg xmlns="http://www.w3.org/2000/svg" width="24" height="24" viewBox="0 0 24 24" fill="none">
  <path fill-rule="evenodd" clip-rule="evenodd" d="M12.0004 21.6004C14.5465 21.6004 16.9883 20.589 18.7886 18.7886C20.589 16.9883 21.6004 14.5465 21.6004 12.0004C21.6004 9.45431 20.589 7.01252 18.7886 5.21217C16.9883 3.41182 14.5465 2.40039 12.0004 2.40039C9.45431 2.40039 7.01252 3.41182 5.21217 5.21217C3.41182 7.01252 2.40039 9.45431 2.40039 12.0004C2.40039 14.5465 3.41182 16.9883 5.21217 18.7886C7.01252 20.589 9.45431 21.6004 12.0004 21.6004ZM13.2004 8.40039C13.2004 8.08213 13.074 7.77691 12.8489 7.55186C12.6239 7.32682 12.3187 7.20039 12.0004 7.20039C11.6821 7.20039 11.3769 7.32682 11.1519 7.55186C10.9268 7.77691 10.8004 8.08213 10.8004 8.40039V10.8004H8.40039C8.08213 10.8004 7.77691 10.9268 7.55186 11.1519C7.32682 11.3769 7.20039 11.6821 7.20039 12.0004C7.20039 12.3187 7.32682 12.6239 7.55186 12.8489C7.77691 13.074 8.08213 13.2004 8.40039 13.2004H10.8004V15.6004C10.8004 15.9187 10.9268 16.2239 11.1519 16.4489C11.3769 16.674 11.6821 16.8004 12.0004 16.8004C12.3187 16.8004 12.6239 16.674 12.8489 16.4489C13.074 16.2239 13.2004 15.9187 13.2004 15.6004V13.2004H15.6004C15.9187 13.2004 16.2239 13.074 16.4489 12.8489C16.674 12.6239 16.8004 12.3187 16.8004 12.0004C16.8004 11.6821 16.674 11.3769 16.4489 11.1519C16.2239 10.9268 15.9187 10.8004 15.6004 10.8004H13.2004V8.40039Z" fill="#7354E8"/>
</svg>