<svg xmlns="http://www.w3.org/2000/svg" width="14" height="15" viewBox="0 0 14 15" class='fill-[#9CA3AF]' fill="none">
<path d="M6.99929 12.666C8.12481 12.6673 9.22568 12.3364 10.164 11.7149L10.4211 11.5446L10.3844 11.2384C10.3021 10.5532 9.97193 9.92165 9.45606 9.4631C8.94019 9.00455 8.27433 8.75067 7.58413 8.74935H7.58317L6.41651 8.74935L6.41555 8.74935C5.72534 8.75067 5.05948 9.00455 4.54362 9.4631C4.02775 9.92165 3.69755 10.5532 3.61532 11.2384L3.57858 11.5446L3.83565 11.7149C4.7737 12.3362 5.87415 12.667 6.99929 12.666ZM6.99929 12.666L6.99984 12.166M6.99929 12.666C6.99966 12.666 7.00002 12.666 7.00039 12.666L6.99984 12.166M6.99984 12.166C5.97271 12.1671 4.96808 11.8652 4.11176 11.298C4.17943 10.734 4.45121 10.2142 4.8758 9.83681C5.30039 9.4594 5.84843 9.25043 6.41651 9.24935H7.58317C8.15125 9.25043 8.69929 9.4594 9.12388 9.83681C9.54847 10.2142 9.82024 10.734 9.88792 11.298C9.0316 11.8652 8.02697 12.1671 6.99984 12.166ZM4.0368 3.06484C4.91378 2.47886 5.94483 2.16607 6.99956 2.16602C8.41362 2.16764 9.7693 2.73009 10.7692 3.72999C11.7692 4.72995 12.3316 6.08574 12.3332 7.4999C12.3331 8.55454 12.0203 9.58548 11.4343 10.4624C10.8483 11.3395 10.0154 12.023 9.04082 12.4267C8.06628 12.8304 6.99392 12.936 5.95936 12.7302C4.92479 12.5244 3.97448 12.0165 3.2286 11.2706C2.48272 10.5247 1.97477 9.5744 1.76899 8.53983C1.5632 7.50527 1.66881 6.43291 2.07248 5.45837C2.47615 4.48383 3.15974 3.65088 4.0368 3.06484ZM8.24987 4.46188C7.87986 4.21464 7.44485 4.08268 6.99984 4.08268C6.4031 4.08268 5.83081 4.31974 5.40885 4.74169C4.98689 5.16365 4.74984 5.73595 4.74984 6.33268C4.74984 6.77769 4.8818 7.2127 5.12903 7.58272C5.37627 7.95273 5.72767 8.24111 6.1388 8.41141C6.54994 8.58171 7.00234 8.62627 7.43879 8.53945C7.87525 8.45263 8.27616 8.23834 8.59083 7.92367C8.9055 7.609 9.11979 7.20809 9.20661 6.77164C9.29342 6.33518 9.24887 5.88278 9.07857 5.47164C8.90827 5.06051 8.61988 4.70911 8.24987 4.46188Z" fill="#9CA3AF" stroke="#9CA3AF"/>
</svg>