<svg xmlns="http://www.w3.org/2000/svg" width="12" height="11" viewBox="0 0 12 11" fill="none">
<path d="M9.97538 4.98836C10.3617 4.28891 10.5912 3.53562 10.6909 2.84046C10.6482 2.90055 10.6035 2.96108 10.5567 3.02192C9.72341 4.10653 8.26214 5.2554 5.76898 5.63469L5.19377 5.72219V5.14037V3.70448C5.19377 3.65775 5.18144 3.61385 5.16064 3.578C5.13995 3.54235 5.11295 3.51796 5.0861 3.50366C5.05962 3.48956 5.03246 3.48468 5.00684 3.48714C4.9811 3.48961 4.95333 3.49987 4.92713 3.52079C4.92713 3.5208 4.92712 3.5208 4.92712 3.5208L1.33172 6.39259L1.33171 6.3926C1.30956 6.41028 1.28894 6.4354 1.27377 6.4677C1.25857 6.50008 1.25 6.53736 1.25 6.57627C1.25 6.61519 1.25857 6.65247 1.27377 6.68485C1.28894 6.71714 1.30956 6.74226 1.33171 6.75995L1.33172 6.75996L4.92712 9.63174C4.92712 9.63174 4.92713 9.63175 4.92713 9.63175C4.95333 9.65268 4.9811 9.66293 5.00684 9.6654C5.03246 9.66786 5.05962 9.66298 5.0861 9.64888C5.11295 9.63459 5.13995 9.61019 5.16064 9.57454C5.18144 9.53869 5.19377 9.4948 5.19377 9.44807V8.01217V7.51217H5.69377C7.84033 7.51217 9.20454 6.38385 9.97538 4.98836Z" fill="#6B7280" stroke="#6B7280"/>
</svg>