<svg xmlns="http://www.w3.org/2000/svg" width="110" height="110" viewBox="0 0 110 110" fill="none">
  <mask id="path-1-inside-1_2193_14986" fill="white">
    <path d="M56.3872 5.01925C56.4639 2.25889 58.769 0.0598297 61.511 0.386717C70.8157 1.49597 79.7126 4.96871 87.3371 10.5106C96.314 17.0354 103.107 26.1233 106.824 36.5802C110.54 47.037 111.007 58.3736 108.162 69.1003C105.745 78.2111 101.036 86.5199 94.5185 93.2528C92.5979 95.237 89.422 94.9861 87.6204 92.8933L76.2033 79.6306C74.4017 77.5378 74.6815 74.4039 76.414 72.2536C78.8208 69.2664 80.5879 65.7937 81.5809 62.0502C83.0034 56.6868 82.7702 51.0185 80.9119 45.7901C79.0535 40.5616 75.657 36.0177 71.1685 32.7553C68.0357 30.4782 64.4733 28.8998 60.7211 28.1017C58.0201 27.5272 55.8251 25.2729 55.9017 22.5125L56.3872 5.01925Z"/>
  </mask>
  <path d="M56.3872 5.01925C56.4639 2.25889 58.769 0.0598297 61.511 0.386717C70.8157 1.49597 79.7126 4.96871 87.3371 10.5106C96.314 17.0354 103.107 26.1233 106.824 36.5802C110.54 47.037 111.007 58.3736 108.162 69.1003C105.745 78.2111 101.036 86.5199 94.5185 93.2528C92.5979 95.237 89.422 94.9861 87.6204 92.8933L76.2033 79.6306C74.4017 77.5378 74.6815 74.4039 76.414 72.2536C78.8208 69.2664 80.5879 65.7937 81.5809 62.0502C83.0034 56.6868 82.7702 51.0185 80.9119 45.7901C79.0535 40.5616 75.657 36.0177 71.1685 32.7553C68.0357 30.4782 64.4733 28.8998 60.7211 28.1017C58.0201 27.5272 55.8251 25.2729 55.9017 22.5125L56.3872 5.01925Z" fill="#7354E8" stroke="white" stroke-width="4" mask="url(#path-1-inside-1_2193_14986)"/>
  <mask id="path-2-inside-2_2193_14986" fill="white">
    <path d="M87.4187 93.0661C89.2092 95.1684 88.9681 98.3451 86.7119 99.9372C80.8206 104.095 74.1552 107.063 67.0893 108.655C58.3935 110.614 49.3518 110.431 40.7427 108.12C32.1337 105.809 24.2152 101.441 17.6691 95.3906C11.1231 89.3405 6.14561 81.7899 3.16531 73.3891C0.185009 64.9883 -0.708804 55.9891 0.560819 47.1662C1.83045 38.3433 5.22547 29.9612 10.4536 22.7416C15.6816 15.522 22.5861 9.68127 30.5725 5.72234C37.062 2.50543 44.1078 0.609339 51.302 0.124529C54.0572 -0.0611392 56.2462 2.25338 56.181 5.01403L55.7677 22.5091C55.7024 25.2698 53.3947 27.4084 50.6677 27.8435C47.938 28.2789 45.28 29.125 42.7863 30.3612C38.7931 32.3407 35.3408 35.261 32.7268 38.8708C30.1128 42.4806 28.4152 46.6717 27.7804 51.0831C27.1456 55.4945 27.5925 59.9942 29.0827 64.1946C30.5728 68.395 33.0615 72.1702 36.3346 75.1953C39.6076 78.2204 43.5668 80.4047 47.8714 81.56C52.1759 82.7153 56.6968 82.8071 61.0447 81.8275C63.7599 81.2157 66.3568 80.1975 68.7507 78.8153C71.1421 77.4346 74.2817 77.6406 76.0722 79.743L87.4187 93.0661Z"/>
  </mask>
  <path d="M87.4187 93.0661C89.2092 95.1684 88.9681 98.3451 86.7119 99.9372C80.8206 104.095 74.1552 107.063 67.0893 108.655C58.3935 110.614 49.3518 110.431 40.7427 108.12C32.1337 105.809 24.2152 101.441 17.6691 95.3906C11.1231 89.3405 6.14561 81.7899 3.16531 73.3891C0.185009 64.9883 -0.708804 55.9891 0.560819 47.1662C1.83045 38.3433 5.22547 29.9612 10.4536 22.7416C15.6816 15.522 22.5861 9.68127 30.5725 5.72234C37.062 2.50543 44.1078 0.609339 51.302 0.124529C54.0572 -0.0611392 56.2462 2.25338 56.181 5.01403L55.7677 22.5091C55.7024 25.2698 53.3947 27.4084 50.6677 27.8435C47.938 28.2789 45.28 29.125 42.7863 30.3612C38.7931 32.3407 35.3408 35.261 32.7268 38.8708C30.1128 42.4806 28.4152 46.6717 27.7804 51.0831C27.1456 55.4945 27.5925 59.9942 29.0827 64.1946C30.5728 68.395 33.0615 72.1702 36.3346 75.1953C39.6076 78.2204 43.5668 80.4047 47.8714 81.56C52.1759 82.7153 56.6968 82.8071 61.0447 81.8275C63.7599 81.2157 66.3568 80.1975 68.7507 78.8153C71.1421 77.4346 74.2817 77.6406 76.0722 79.743L87.4187 93.0661Z" fill="#E5E7EB" stroke="white" stroke-width="4" mask="url(#path-2-inside-2_2193_14986)"/>
</svg>