<svg width="32" height="32" viewBox="0 0 32 32" fill="currentColor" xmlns="http://www.w3.org/2000/svg">
<path d="M19.8921 5.33268V5.83268H20.3921H24.1568C24.6797 5.83268 25.1878 6.05311 25.5674 6.45641C25.9479 6.86074 26.1666 7.41526 26.1666 7.99935V26.666C26.1666 27.2501 25.9479 27.8046 25.5674 28.209C25.1878 28.6123 24.6797 28.8327 24.1568 28.8327H7.84306C7.32014 28.8327 6.81203 28.6123 6.43246 28.209C6.05191 27.8046 5.83325 27.2501 5.83325 26.666V7.99935C5.83325 7.41526 6.05191 6.86074 6.43246 6.45641C6.81203 6.05311 7.32014 5.83268 7.84306 5.83268H11.6078H12.1078V5.33268C12.1078 4.7486 12.3264 4.19407 12.707 3.78975C13.0865 3.38645 13.5946 3.16602 14.1176 3.16602H17.8823C18.4052 3.16602 18.9133 3.38645 19.2929 3.78975C19.6734 4.19407 19.8921 4.7486 19.8921 5.33268ZM18.3823 5.33268V4.83268H17.8823H14.1176H13.6176V5.33268V9.33268V9.83268H14.1176H17.8823H18.3823V9.33268V5.33268ZM11.6078 23.166H20.3921C20.8676 23.166 21.3171 22.965 21.6435 22.6182C21.969 22.2724 22.147 21.8095 22.147 21.3327C22.147 20.8559 21.969 20.393 21.6435 20.0472C21.3171 19.7003 20.8676 19.4993 20.3921 19.4993H11.6078C11.1322 19.4993 10.6828 19.7003 10.3563 20.0472C10.0308 20.393 9.85286 20.8559 9.85286 21.3327C9.85286 21.8095 10.0308 22.2724 10.3563 22.6182C10.6828 22.965 11.1322 23.166 11.6078 23.166ZM11.6078 17.8327H20.3921C20.8676 17.8327 21.3171 17.6317 21.6435 17.2848C21.969 16.939 22.147 16.4761 22.147 15.9993C22.147 15.5226 21.969 15.0597 21.6435 14.7139C21.3171 14.367 20.8676 14.166 20.3921 14.166H11.6078C11.1322 14.166 10.6828 14.367 10.3563 14.7139C10.0308 15.0597 9.85286 15.5226 9.85286 15.9993C9.85286 16.4761 10.0308 16.939 10.3563 17.2848C10.6828 17.6317 11.1322 17.8327 11.6078 17.8327Z" fill="currentColor" stroke="#6B7280"/>
</svg>
