<svg width="30" height="30" viewBox="0 0 30 30" fill="currentColor" xmlns="http://www.w3.org/2000/svg">
<path d="M28.4068 5.16257C29.0137 4.76343 29.1832 3.95424 28.7841 3.34734C28.385 2.74044 27.5758 2.57094 26.9689 2.97007L21.2443 6.71536C19.3635 6.39824 17.2421 6.25061 15.0004 6.25061C7.26925 6.25061 1.00342 8.00023 1.00342 12.3743V21.1224C1.00342 22.8337 2.50153 24.3373 4.94006 25.4254V19.8102C4.94006 19.083 5.52509 18.498 6.25228 18.498C6.97946 18.498 7.56449 19.083 7.56449 19.8102V26.3384C9.36879 26.8251 11.4519 27.1312 13.6882 27.2187V21.5598C13.6882 20.8326 14.2732 20.2476 15.0004 20.2476C15.7276 20.2476 16.3126 20.8326 16.3126 21.5598V27.2187C18.5488 27.1312 20.632 26.8251 22.4363 26.3384V19.8102C22.4363 19.083 23.0213 18.498 23.7485 18.498C24.4757 18.498 25.0607 19.083 25.0607 19.8102V25.4254C27.4992 24.3373 28.9973 22.8337 28.9973 21.1224V12.3743C28.9973 10.1271 27.3461 8.57433 24.6889 7.59563L28.4014 5.16257H28.4068ZM17.8107 8.96252L14.2787 11.2753C13.6718 11.6744 13.5023 12.4836 13.9014 13.0905C14.3005 13.6974 15.1097 13.8669 15.7166 13.4678L21.7911 9.48741C22.5948 9.66237 23.3165 9.87014 23.9453 10.1162C26.0667 10.9418 26.3729 11.7947 26.3729 12.3743C26.3729 12.418 26.2253 13.3147 23.8578 14.3371C21.7309 15.2557 18.609 15.8735 15.0004 15.8735C11.3918 15.8735 8.26981 15.2557 6.14293 14.3371C3.77547 13.3147 3.62785 12.418 3.62785 12.3743C3.62785 11.7947 3.93403 10.9418 6.05545 10.1162C8.14406 9.30698 11.2715 8.87504 15.0004 8.87504C15.9845 8.87504 16.9195 8.90238 17.8107 8.96252Z" fill="currentColor"/>
<circle cx="13.9657" cy="12.8675" r="2.3734" fill="#6B7280"/>
</svg>
