<svg width="30" height="30" viewBox="0 0 30 30" fill="currentColor" xmlns="http://www.w3.org/2000/svg">
<path fill-rule="evenodd" clip-rule="evenodd" d="M25.8838 1.61598C25.7089 1.44122 25.4862 1.32221 25.2438 1.274C25.0013 1.22579 24.7501 1.25055 24.5217 1.34514C24.2933 1.43972 24.0981 1.5999 23.9607 1.80541C23.8234 2.01092 23.7501 2.25255 23.75 2.49973V7.71223C22.9996 7.44692 22.1842 7.42726 21.4218 7.6561C20.6595 7.88495 19.9897 8.35042 19.5095 8.98517C19.0292 9.61991 18.7634 10.391 18.7505 11.1869C18.7376 11.9827 18.9782 12.762 19.4376 13.412C19.8969 14.062 20.5512 14.549 21.3057 14.8025C22.0602 15.056 22.8758 15.0628 23.6345 14.822C24.3931 14.5812 25.0555 14.1053 25.5257 13.4631C25.9959 12.8209 26.2496 12.0457 26.25 11.2497V5.51723L26.6162 5.88348C26.7316 6.00287 26.8695 6.0981 27.022 6.16361C27.1745 6.22912 27.3385 6.2636 27.5045 6.26505C27.6705 6.26649 27.8351 6.23486 27.9887 6.17201C28.1423 6.10916 28.2819 6.01634 28.3992 5.89898C28.5166 5.78161 28.6094 5.64205 28.6723 5.48843C28.7351 5.33481 28.7668 5.17021 28.7653 5.00423C28.7639 4.83826 28.7294 4.67423 28.6639 4.52173C28.5984 4.36922 28.5031 4.23129 28.3838 4.11598L25.8838 1.61598ZM15 4.99973C13.1355 5.00018 11.3083 5.52186 9.72467 6.50587C8.14102 7.48988 6.864 8.89703 6.0378 10.5684C5.2116 12.2399 4.86913 14.109 5.04905 15.9647C5.22898 17.8205 5.92413 19.589 7.05602 21.0706C8.1879 22.5522 9.71145 23.6878 11.4546 24.3493C13.1978 25.0107 15.0912 25.1717 16.921 24.8139C18.7509 24.4562 20.4443 23.594 21.81 22.3248C23.1757 21.0555 24.1594 19.4297 24.65 17.631C24.6915 17.4709 24.7643 17.3207 24.8643 17.189C24.9643 17.0572 25.0894 16.9467 25.2324 16.8637C25.3754 16.7806 25.5334 16.7268 25.6974 16.7053C25.8614 16.6838 26.0279 16.695 26.1875 16.7383C26.3471 16.7817 26.4965 16.8562 26.6271 16.9577C26.7576 17.0592 26.8668 17.1855 26.9481 17.3295C27.0295 17.4734 27.0815 17.6321 27.1012 17.7963C27.1208 17.9605 27.1076 18.1269 27.0625 18.286C25.6213 23.5947 20.7675 27.4997 15 27.4997C8.09625 27.4997 2.5 21.9035 2.5 14.9997C2.5 8.09598 8.09625 2.49973 15 2.49973C16.625 2.49973 18.1813 2.81098 19.6087 3.37723C19.9169 3.49956 20.1638 3.7393 20.2952 4.04369C20.4266 4.34809 20.4317 4.69221 20.3094 5.00036C20.187 5.30851 19.9473 5.55544 19.6429 5.68683C19.3385 5.81822 18.9944 5.82331 18.6863 5.70098C17.513 5.23603 16.2621 4.99806 15 4.99973ZM15 13.7497C14.6685 13.7497 14.3505 13.8814 14.1161 14.1159C13.8817 14.3503 13.75 14.6682 13.75 14.9997C13.75 15.3313 13.8817 15.6492 14.1161 15.8836C14.3505 16.118 14.6685 16.2497 15 16.2497C15.3315 16.2497 15.6495 16.118 15.8839 15.8836C16.1183 15.6492 16.25 15.3313 16.25 14.9997C16.25 14.6682 16.1183 14.3503 15.8839 14.1159C15.6495 13.8814 15.3315 13.7497 15 13.7497ZM11.25 14.9997C11.25 14.0052 11.6451 13.0513 12.3483 12.3481C13.0516 11.6448 14.0054 11.2497 15 11.2497C15.9946 11.2497 16.9484 11.6448 17.6517 12.3481C18.3549 13.0513 18.75 14.0052 18.75 14.9997C18.75 15.9943 18.3549 16.9481 17.6517 17.6514C16.9484 18.3546 15.9946 18.7497 15 18.7497C14.0054 18.7497 13.0516 18.3546 12.3483 17.6514C11.6451 16.9481 11.25 15.9943 11.25 14.9997Z" fill="currentColor"/>
</svg>
