<svg width="30" height="30" viewBox="0 0 30 30" fill="currentColor" xmlns="http://www.w3.org/2000/svg">
<g clip-path="url(#clip0_1641_11015)">
<path d="M15 2.5C21.9037 2.5 27.5 8.09625 27.5 15C27.5016 16.9407 27.0506 18.8551 26.1829 20.591C25.3151 22.3269 24.0546 23.8365 22.5012 25H25C25.3315 25 25.6495 25.1317 25.8839 25.3661C26.1183 25.6005 26.25 25.9185 26.25 26.25C26.25 26.5815 26.1183 26.8995 25.8839 27.1339C25.6495 27.3683 25.3315 27.5 25 27.5H15C8.09625 27.5 2.5 21.9037 2.5 15C2.5 8.09625 8.09625 2.5 15 2.5ZM15 17.5C14.337 17.5 13.7011 17.7634 13.2322 18.2322C12.7634 18.7011 12.5 19.337 12.5 20C12.5 20.663 12.7634 21.2989 13.2322 21.7678C13.7011 22.2366 14.337 22.5 15 22.5C15.663 22.5 16.2989 22.2366 16.7678 21.7678C17.2366 21.2989 17.5 20.663 17.5 20C17.5 19.337 17.2366 18.7011 16.7678 18.2322C16.2989 17.7634 15.663 17.5 15 17.5ZM10 12.5C9.33696 12.5 8.70107 12.7634 8.23223 13.2322C7.76339 13.7011 7.5 14.337 7.5 15C7.5 15.663 7.76339 16.2989 8.23223 16.7678C8.70107 17.2366 9.33696 17.5 10 17.5C10.663 17.5 11.2989 17.2366 11.7678 16.7678C12.2366 16.2989 12.5 15.663 12.5 15C12.5 14.337 12.2366 13.7011 11.7678 13.2322C11.2989 12.7634 10.663 12.5 10 12.5ZM20 12.5C19.337 12.5 18.7011 12.7634 18.2322 13.2322C17.7634 13.7011 17.5 14.337 17.5 15C17.5 15.663 17.7634 16.2989 18.2322 16.7678C18.7011 17.2366 19.337 17.5 20 17.5C20.663 17.5 21.2989 17.2366 21.7678 16.7678C22.2366 16.2989 22.5 15.663 22.5 15C22.5 14.337 22.2366 13.7011 21.7678 13.2322C21.2989 12.7634 20.663 12.5 20 12.5ZM15 7.5C14.337 7.5 13.7011 7.76339 13.2322 8.23223C12.7634 8.70107 12.5 9.33696 12.5 10C12.5 10.663 12.7634 11.2989 13.2322 11.7678C13.7011 12.2366 14.337 12.5 15 12.5C15.663 12.5 16.2989 12.2366 16.7678 11.7678C17.2366 11.2989 17.5 10.663 17.5 10C17.5 9.33696 17.2366 8.70107 16.7678 8.23223C16.2989 7.76339 15.663 7.5 15 7.5Z" fill="currentColor"/>
</g>
<defs>
<clipPath id="clip0_1641_11015">
<rect width="30" height="30" fill="white"/>
</clipPath>
</defs>
</svg>
