<svg width="30" height="30" viewBox="0 0 30 30" fill="currentColor" xmlns="http://www.w3.org/2000/svg">
<path d="M2.8125 15C2.8125 11.7677 4.09654 8.66774 6.38214 6.38214C8.66774 4.09654 11.7677 2.8125 15 2.8125C18.2323 2.8125 21.3323 4.09654 23.6179 6.38214C25.9035 8.66774 27.1875 11.7677 27.1875 15C27.1875 18.2323 25.9035 21.3323 23.6179 23.6179C21.3323 25.9035 18.2323 27.1875 15 27.1875C11.7677 27.1875 8.66774 25.9035 6.38214 23.6179C4.09654 21.3323 2.8125 18.2323 2.8125 15ZM10.5806 5.68125C9.21275 6.33175 8.00432 7.27456 7.04063 8.44312L8.25375 12.3881L10.14 13.0162L14.0625 10.035V8.0025L10.5806 5.68125ZM4.755 16.1887C4.9425 17.8106 5.505 19.32 6.35437 20.6231H9.92438L11.115 19.4325L9.57188 14.8013L7.65187 14.1619L4.755 16.1887ZM12.9113 25.0987C14.2893 25.3824 15.7107 25.3824 17.0888 25.0987L18.57 21.7687L17.4244 20.625H12.5756L11.4319 21.7687L12.9113 25.1006V25.0987ZM23.6437 20.625C24.4688 19.3612 25.0238 17.9062 25.2263 16.3406L22.3312 14.1694L20.4281 14.8031L18.885 19.4344L20.0756 20.625H23.6437ZM22.935 8.41313C21.9754 7.25757 20.7757 6.32472 19.4194 5.67938L15.9375 8.0025V10.035L19.86 13.0162L21.7425 12.39L22.935 8.41313Z" fill="currentColor"/>
</svg>
