<svg width="27" height="27" viewBox="0 0 27 27" fill="currentColor" xmlns="http://www.w3.org/2000/svg">
<path d="M11.4837 4.43218C11.4353 4.38371 11.3768 4.34645 11.3124 4.32304C11.248 4.29962 11.1792 4.29061 11.1109 4.29665C11.0427 4.30268 10.9766 4.32361 10.9173 4.35796C10.8579 4.39231 10.8069 4.43924 10.7677 4.49546C9.77885 5.9068 9.24894 7.58858 9.25012 9.31187C9.25098 9.68104 9.27564 10.0498 9.32395 10.4158L1.17825 21.5251C0.911628 21.8857 0.783729 22.3303 0.817944 22.7774C0.852158 23.2246 1.0462 23.6445 1.36458 23.9603L3.03918 25.6349C3.35502 25.9533 3.77491 26.1473 4.22206 26.1815C4.66922 26.2158 5.11374 26.0879 5.47434 25.8212L16.5849 17.6732C16.9504 17.7222 17.3188 17.7477 17.6876 17.7494C19.4103 17.751 21.0916 17.2219 22.5029 16.2341C22.5591 16.1949 22.606 16.1439 22.6404 16.0846C22.6747 16.0253 22.6956 15.9592 22.7017 15.8909C22.7077 15.8226 22.6987 15.7539 22.6753 15.6895C22.6519 15.6251 22.6146 15.5666 22.5661 15.5181L11.4837 4.43218ZM11.7896 16.5353L9.91458 18.4103C9.82839 18.501 9.72491 18.5736 9.61024 18.6237C9.49557 18.6738 9.37203 18.7004 9.24691 18.702C9.12179 18.7036 8.99761 18.6801 8.88169 18.633C8.76578 18.5859 8.66048 18.516 8.572 18.4275C8.48351 18.339 8.41364 18.2337 8.36649 18.1178C8.31935 18.0019 8.29588 17.8777 8.29748 17.7526C8.29909 17.6275 8.32572 17.5039 8.37582 17.3892C8.42592 17.2746 8.49847 17.1711 8.58919 17.0849L10.4642 15.2099C10.6414 15.0415 10.8774 14.949 11.1219 14.9522C11.3664 14.9553 11.5999 15.0538 11.7728 15.2267C11.9457 15.3995 12.0442 15.6331 12.0473 15.8776C12.0505 16.122 11.958 16.3581 11.7896 16.5353ZM24.6099 14.1259C24.5707 14.1823 24.5196 14.2295 24.4602 14.2639C24.4008 14.2984 24.3345 14.3194 24.2661 14.3254C24.1977 14.3315 24.1288 14.3224 24.0642 14.2989C23.9997 14.2753 23.9412 14.2379 23.8927 14.1892L12.8103 3.10679C12.7616 3.05833 12.7242 2.99977 12.7006 2.93524C12.6771 2.87071 12.668 2.8018 12.674 2.73338C12.6801 2.66496 12.7011 2.5987 12.7356 2.5393C12.77 2.47989 12.8171 2.42879 12.8736 2.3896C14.4968 1.25692 16.4669 0.731614 18.4386 0.905738C20.4104 1.07986 22.2579 1.94231 23.6575 3.34194C25.0572 4.74158 25.9196 6.58913 26.0937 8.56084C26.2679 10.5326 25.7426 12.5027 24.6099 14.1259Z" fill="currentColor"/>
</svg>
