<svg xmlns="http://www.w3.org/2000/svg" className='my-0.5 ml-2' width="48" height="48" viewBox="0 0 20 20" fill="none">
<g clip-path="url(#clip0_1286_35465)">
<path d="M18.1603 15.5861C17.8578 16.2848 17.4998 16.928 17.085 17.5194C16.5196 18.3255 16.0567 18.8835 15.6999 19.1934C15.1468 19.702 14.5542 19.9625 13.9197 19.9773C13.4641 19.9773 12.9148 19.8477 12.2753 19.5847C11.6337 19.323 11.0441 19.1934 10.505 19.1934C9.93957 19.1934 9.33317 19.323 8.68455 19.5847C8.03494 19.8477 7.51162 19.9847 7.11151 19.9983C6.50301 20.0242 5.89649 19.7563 5.29107 19.1934C4.90467 18.8563 4.42135 18.2786 3.84235 17.4601C3.22114 16.586 2.71042 15.5725 2.3103 14.417C1.8818 13.1689 1.66699 11.9603 1.66699 10.7902C1.66699 9.44984 1.95661 8.29383 2.53672 7.32509C2.99263 6.54697 3.59915 5.93316 4.35826 5.48255C5.11738 5.03195 5.9376 4.80233 6.8209 4.78764C7.30422 4.78764 7.93803 4.93714 8.72566 5.23096C9.51106 5.52576 10.0154 5.67526 10.2365 5.67526C10.4018 5.67526 10.962 5.50045 11.9117 5.15195C12.8098 4.82875 13.5678 4.69492 14.1888 4.74764C15.8715 4.88344 17.1356 5.54675 17.9763 6.74178C16.4715 7.6536 15.727 8.93072 15.7419 10.5691C15.7554 11.8452 16.2184 12.9071 17.1282 13.7503C17.5406 14.1417 18.001 14.4441 18.5134 14.6589C18.4023 14.9812 18.285 15.2898 18.1603 15.5861ZM14.3012 0.400114C14.3012 1.40034 13.9357 2.33425 13.2074 3.19867C12.3284 4.22629 11.2652 4.8201 10.1123 4.7264C10.0976 4.60641 10.0891 4.48011 10.0891 4.3474C10.0891 3.38718 10.5071 2.35956 11.2494 1.51934C11.62 1.09392 12.0914 0.74019 12.6629 0.458013C13.2333 0.180046 13.7728 0.0263242 14.2802 0C14.295 0.133715 14.3012 0.267438 14.3012 0.400101V0.400114Z" fill="#1F2A37"/>
</g>
<defs>
<clipPath id="clip0_1286_35465">
<rect width="20" height="20" fill="white"/>
</clipPath>
</defs>
</svg>