<svg xmlns="http://www.w3.org/2000/svg" width="50" height="50" viewBox="0 0 50 50" fill="none">
  <path d="M20.3819 8.88885C20.5092 9.14801 20.5933 9.42555 20.631 9.71087L21.3271 20.0607L21.6726 25.2627C21.6762 25.7977 21.7601 26.3292 21.9217 26.8401C22.339 27.8314 23.3429 28.4615 24.4351 28.4175L41.0783 27.3289C41.799 27.317 42.495 27.5866 43.0131 28.0782C43.4449 28.488 43.7236 29.0239 43.8114 29.6004L43.8409 29.9505C43.1522 39.4873 36.1479 47.4417 26.6309 49.495C17.1139 51.5484 7.35466 47.2108 2.65177 38.8373C1.29597 36.4046 0.449126 33.7307 0.160955 30.9725C0.0405714 30.156 -0.0124363 29.3313 0.00244806 28.5064C-0.0124149 18.2819 7.26868 9.44242 17.4608 7.31144C18.6875 7.12044 19.8901 7.76983 20.3819 8.88885Z" fill="#917AE6"/>
  <path d="M27.1754 0.00204796C38.5751 0.292066 48.1562 8.48947 50.0004 19.5307L49.9828 19.6122L49.9325 19.7307L49.9395 20.0559C49.9134 20.4868 49.747 20.9014 49.4603 21.2362C49.1617 21.585 48.7537 21.8226 48.3044 21.9148L48.0304 21.9524L28.8284 23.1965C28.1897 23.2595 27.5538 23.0536 27.0788 22.6299C26.6829 22.2768 26.4299 21.8002 26.3584 21.2867L25.0696 2.11266C25.0471 2.04782 25.0471 1.97754 25.0696 1.9127C25.0872 1.38418 25.3198 0.8846 25.7155 0.525575C26.1112 0.166549 26.637 -0.0220009 27.1754 0.00204796Z" fill="#FCD9BD"/>
</svg>