<svg width="52" height="52" viewBox="0 0 52 52" fill="none" xmlns="http://www.w3.org/2000/svg">
<g id="Iconly/Bulk/Graph">
<g id="Graph">
<path id="Path" d="M21.9978 12.037C22.1081 12.2616 22.181 12.5021 22.2137 12.7494L22.8169 21.7192L23.1164 26.2277C23.1195 26.6913 23.1922 27.1519 23.3323 27.5947C23.694 28.4539 24.564 28.9999 25.5106 28.9618L39.9347 28.0183C40.5593 28.008 41.1625 28.2417 41.6115 28.6678C41.9857 29.0229 42.2273 29.4874 42.3034 29.987L42.3289 30.2904C41.732 38.5556 35.6617 45.4494 27.4136 47.229C19.1655 49.0085 10.7075 45.2493 6.6317 37.9923C5.45667 35.8839 4.72274 33.5665 4.47299 31.1761C4.36866 30.4685 4.32272 29.7537 4.33562 29.0388C4.32274 20.1776 10.633 12.5167 19.4662 10.6699C20.5293 10.5043 21.5716 11.0671 21.9978 12.037Z" fill="#B6A3EF"/>
<path id="Path_2" d="M27.6166 7.00132C36.2986 7.21376 43.5955 13.2185 45 21.3064L44.9866 21.3661L44.9483 21.4529L44.9536 21.6911C44.9337 22.0067 44.807 22.3104 44.5887 22.5557C44.3612 22.8112 44.0505 22.9852 43.7083 23.0527L43.4996 23.0803L28.8755 23.9917C28.3891 24.0378 27.9048 23.8869 27.543 23.5766C27.2416 23.318 27.0488 22.9688 26.9944 22.5927L26.0128 8.54737C25.9957 8.49988 25.9957 8.4484 26.0128 8.4009C26.0262 8.01375 26.2034 7.6478 26.5048 7.38481C26.8061 7.12182 27.2066 6.9837 27.6166 7.00132Z" fill="#FCD9BD"/>
</g>
</g>
</svg>
