<svg xmlns="http://www.w3.org/2000/svg" width="20" height="20" viewBox="0 0 20 20" fill="none">
  <path d="M17.4184 10.4445C17.4996 10.2318 17.5208 9.99772 17.4794 9.77194C17.438 9.54615 17.3359 9.33877 17.1859 9.17604L12.8999 4.52128C12.8011 4.41013 12.6829 4.32148 12.5521 4.26049C12.4214 4.1995 12.2808 4.1674 12.1385 4.16606C11.9963 4.16472 11.8552 4.19416 11.7235 4.25267C11.5918 4.31118 11.4722 4.39759 11.3716 4.50685C11.271 4.61611 11.1914 4.74604 11.1375 4.88906C11.0836 5.03207 11.0565 5.1853 11.0578 5.33982C11.059 5.49433 11.0886 5.64703 11.1447 5.78901C11.2009 5.93098 11.2825 6.05939 11.3848 6.16673L13.8429 8.83624H3.5715C3.28732 8.83624 3.01478 8.95884 2.81383 9.17708C2.61289 9.39531 2.5 9.6913 2.5 9.99993C2.5 10.3086 2.61289 10.6045 2.81383 10.8228C3.01478 11.041 3.28732 11.1636 3.5715 11.1636H13.8429L11.3859 13.832C11.2836 13.9393 11.202 14.0677 11.1458 14.2097C11.0896 14.3517 11.0601 14.5044 11.0588 14.6589C11.0576 14.8134 11.0847 14.9666 11.1386 15.1096C11.1925 15.2527 11.272 15.3826 11.3726 15.4918C11.4732 15.6011 11.5929 15.6875 11.7246 15.746C11.8562 15.8045 11.9973 15.834 12.1396 15.8326C12.2819 15.8313 12.4225 15.7992 12.5532 15.7382C12.6839 15.6772 12.8022 15.5886 12.901 15.4774L17.187 10.8227C17.2863 10.7143 17.3649 10.5858 17.4184 10.4445Z" fill="#111928"/>
</svg>