<svg
  xmlns="http://www.w3.org/2000/svg"
  width="17"
  height="16"
  viewBox="0 0 17 16"
  fill="none"
>
  <path
    fill-rule="evenodd"
    clip-rule="evenodd"
    d="M3.69961 3.99844C3.27526 3.99844 2.8683 4.16701 2.56824 4.46707C2.26818 4.76712 2.09961 5.17409 2.09961 5.59844V11.9984C2.09961 12.4228 2.26818 12.8298 2.56824 13.1298C2.8683 13.4299 3.27526 13.5984 3.69961 13.5984H13.2996C13.724 13.5984 14.1309 13.4299 14.431 13.1298C14.731 12.8298 14.8996 12.4228 14.8996 11.9984V5.59844C14.8996 5.17409 14.731 4.76712 14.431 4.46707C14.1309 4.16701 13.724 3.99844 13.2996 3.99844H12.0308C11.8187 3.99839 11.6152 3.91408 11.4652 3.76404L10.5684 2.86724C10.2684 2.56716 9.86152 2.39853 9.43721 2.39844H7.56201C7.1377 2.39853 6.7308 2.56716 6.43081 2.86724L5.53401 3.76404C5.38402 3.91408 5.18057 3.99839 4.96841 3.99844H3.69961ZM8.49961 11.1984C8.81478 11.1984 9.12687 11.1364 9.41805 11.0157C9.70923 10.8951 9.9738 10.7184 10.1967 10.4955C10.4195 10.2726 10.5963 10.0081 10.7169 9.71688C10.8375 9.4257 10.8996 9.11361 10.8996 8.79844C10.8996 8.48327 10.8375 8.17118 10.7169 7.88C10.5963 7.58882 10.4195 7.32424 10.1967 7.10138C9.9738 6.87852 9.70923 6.70174 9.41805 6.58113C9.12687 6.46052 8.81478 6.39844 8.49961 6.39844C7.86309 6.39844 7.25264 6.65129 6.80255 7.10138C6.35247 7.55147 6.09961 8.16192 6.09961 8.79844C6.09961 9.43496 6.35247 10.0454 6.80255 10.4955C7.25264 10.9456 7.86309 11.1984 8.49961 11.1984Z"
    fill="#7354E8"
  />
</svg>
