<svg width="19" height="20" viewBox="0 0 19 20" fill="none" xmlns="http://www.w3.org/2000/svg">
<path d="M11.0725 14.3401L11.0725 14.3401C11.3069 14.5744 11.6248 14.7061 11.9563 14.7061C12.2877 14.7061 12.6056 14.5744 12.84 14.3401L12.8401 14.34C13.0745 14.1056 13.2061 13.7877 13.2061 13.4562C13.2061 13.1248 13.0745 12.8069 12.8401 12.5725L12.8401 12.5724L10.75 10.4824V8C10.75 7.66848 10.6183 7.35054 10.3839 7.11612L10.0303 7.46967L10.3839 7.11612C10.1495 6.8817 9.83153 6.75 9.5 6.75C9.16848 6.75 8.85054 6.8817 8.61612 7.11612C8.3817 7.35054 8.25 7.66848 8.25 8L8.25 11L8.25001 11.0026C8.2517 11.3328 8.38306 11.6491 8.61577 11.8834L8.61695 11.8846L11.0725 14.3401ZM5.61101 5.17971C6.76208 4.41059 8.11535 4.00005 9.49973 4C11.3557 4.00211 13.135 4.74031 14.4473 6.05266C15.7598 7.36508 16.498 9.14451 16.5 11.0005C16.4999 12.3848 16.0894 13.738 15.3203 14.889C14.5511 16.0401 13.4579 16.9373 12.1788 17.4672C10.8997 17.997 9.49224 18.1356 8.13437 17.8655C6.7765 17.5954 5.52922 16.9287 4.55026 15.9497C3.57129 14.9708 2.9046 13.7235 2.63451 12.3656C2.36441 11.0078 2.50303 9.6003 3.03285 8.32122C3.56266 7.04213 4.45987 5.94888 5.61101 5.17971Z" fill="#6B7280" stroke="#6B7280"/>
</svg>
