<svg xmlns="http://www.w3.org/2000/svg" width="16" height="16" viewBox="0 0 16 16" fill="none">
  <path fill-rule="evenodd" clip-rule="evenodd" d="M7.19844 1.59961C7.04991 1.59969 6.90433 1.64112 6.77802 1.71925C6.6517 1.79739 6.54963 1.90914 6.48324 2.04201L5.90404 3.19961H3.19844C2.98626 3.19961 2.78278 3.28389 2.63275 3.43392C2.48272 3.58395 2.39844 3.78744 2.39844 3.99961C2.39844 4.21178 2.48272 4.41527 2.63275 4.56529C2.78278 4.71532 2.98626 4.79961 3.19844 4.79961V12.7996C3.19844 13.224 3.36701 13.6309 3.66707 13.931C3.96712 14.231 4.37409 14.3996 4.79844 14.3996H11.1984C11.6228 14.3996 12.0298 14.231 12.3298 13.931C12.6299 13.6309 12.7984 13.224 12.7984 12.7996V4.79961C13.0106 4.79961 13.2141 4.71532 13.3641 4.56529C13.5142 4.41527 13.5984 4.21178 13.5984 3.99961C13.5984 3.78744 13.5142 3.58395 13.3641 3.43392C13.2141 3.28389 13.0106 3.19961 12.7984 3.19961H10.0928L9.51364 2.04201C9.44725 1.90914 9.34518 1.79739 9.21886 1.71925C9.09254 1.64112 8.94697 1.59969 8.79844 1.59961H7.19844ZM5.59844 6.39961C5.59844 6.18744 5.68272 5.98395 5.83275 5.83392C5.98278 5.68389 6.18626 5.59961 6.39844 5.59961C6.61061 5.59961 6.81409 5.68389 6.96412 5.83392C7.11415 5.98395 7.19844 6.18744 7.19844 6.39961V11.1996C7.19844 11.4118 7.11415 11.6153 6.96412 11.7653C6.81409 11.9153 6.61061 11.9996 6.39844 11.9996C6.18626 11.9996 5.98278 11.9153 5.83275 11.7653C5.68272 11.6153 5.59844 11.4118 5.59844 11.1996V6.39961ZM9.59844 5.59961C9.38626 5.59961 9.18278 5.68389 9.03275 5.83392C8.88272 5.98395 8.79844 6.18744 8.79844 6.39961V11.1996C8.79844 11.4118 8.88272 11.6153 9.03275 11.7653C9.18278 11.9153 9.38626 11.9996 9.59844 11.9996C9.81061 11.9996 10.0141 11.9153 10.1641 11.7653C10.3142 11.6153 10.3984 11.4118 10.3984 11.1996V6.39961C10.3984 6.18744 10.3142 5.98395 10.1641 5.83392C10.0141 5.68389 9.81061 5.59961 9.59844 5.59961Z" fill="#9CA3AF"/>
</svg>