<svg width="16" height="16" viewBox="0 0 16 16" fill="none" xmlns="http://www.w3.org/2000/svg">
<g id="pencil-alt">
<path id="Vector" d="M13.9308 2.06807C13.6308 1.76811 13.2239 1.59961 12.7996 1.59961C12.3753 1.59961 11.9685 1.76811 11.6684 2.06807L5.59961 8.13687V10.3993H7.86201L13.9308 4.33047C14.2308 4.03042 14.3993 3.62353 14.3993 3.19927C14.3993 2.775 14.2308 2.36811 13.9308 2.06807Z" fill="#9CA3AF"/>
<path id="Vector_2" fill-rule="evenodd" clip-rule="evenodd" d="M1.59961 4.79922C1.59961 4.37487 1.76818 3.96791 2.06824 3.66785C2.3683 3.36779 2.77526 3.19922 3.19961 3.19922H6.39961C6.61178 3.19922 6.81527 3.2835 6.96529 3.43353C7.11532 3.58356 7.19961 3.78705 7.19961 3.99922C7.19961 4.21139 7.11532 4.41487 6.96529 4.5649C6.81527 4.71493 6.61178 4.79922 6.39961 4.79922H3.19961V12.7992H11.1996V9.59922C11.1996 9.38705 11.2839 9.18356 11.4339 9.03353C11.584 8.8835 11.7874 8.79922 11.9996 8.79922C12.2118 8.79922 12.4153 8.8835 12.5653 9.03353C12.7153 9.18356 12.7996 9.38705 12.7996 9.59922V12.7992C12.7996 13.2236 12.631 13.6305 12.331 13.9306C12.0309 14.2306 11.624 14.3992 11.1996 14.3992H3.19961C2.77526 14.3992 2.3683 14.2306 2.06824 13.9306C1.76818 13.6305 1.59961 13.2236 1.59961 12.7992V4.79922Z" fill="#9CA3AF"/>
</g>
</svg>
