<svg width="16" height="17" viewBox="0 0 16 17" fill="none" xmlns="http://www.w3.org/2000/svg">
<g id="trash">
<path id="Vector" fill-rule="evenodd" clip-rule="evenodd" d="M7.1999 2.09961C7.05137 2.09969 6.9058 2.14112 6.77948 2.21925C6.65317 2.29739 6.5511 2.40914 6.4847 2.54201L5.9055 3.69961H3.1999C2.98773 3.69961 2.78425 3.78389 2.63422 3.93392C2.48419 4.08395 2.3999 4.28744 2.3999 4.49961C2.3999 4.71178 2.48419 4.91527 2.63422 5.06529C2.78425 5.21532 2.98773 5.29961 3.1999 5.29961V13.2996C3.1999 13.724 3.36847 14.1309 3.66853 14.431C3.96859 14.731 4.37556 14.8996 4.7999 14.8996H11.1999C11.6242 14.8996 12.0312 14.731 12.3313 14.431C12.6313 14.1309 12.7999 13.724 12.7999 13.2996V5.29961C13.0121 5.29961 13.2156 5.21532 13.3656 5.06529C13.5156 4.91527 13.5999 4.71178 13.5999 4.49961C13.5999 4.28744 13.5156 4.08395 13.3656 3.93392C13.2156 3.78389 13.0121 3.69961 12.7999 3.69961H10.0943L9.5151 2.54201C9.44871 2.40914 9.34664 2.29739 9.22032 2.21925C9.09401 2.14112 8.94843 2.09969 8.7999 2.09961H7.1999ZM5.5999 6.89961C5.5999 6.68744 5.68419 6.48395 5.83422 6.33392C5.98425 6.18389 6.18773 6.09961 6.3999 6.09961C6.61208 6.09961 6.81556 6.18389 6.96559 6.33392C7.11562 6.48395 7.1999 6.68744 7.1999 6.89961V11.6996C7.1999 11.9118 7.11562 12.1153 6.96559 12.2653C6.81556 12.4153 6.61208 12.4996 6.3999 12.4996C6.18773 12.4996 5.98425 12.4153 5.83422 12.2653C5.68419 12.1153 5.5999 11.9118 5.5999 11.6996V6.89961ZM9.5999 6.09961C9.38773 6.09961 9.18425 6.18389 9.03422 6.33392C8.88419 6.48395 8.7999 6.68744 8.7999 6.89961V11.6996C8.7999 11.9118 8.88419 12.1153 9.03422 12.2653C9.18425 12.4153 9.38773 12.4996 9.5999 12.4996C9.81208 12.4996 10.0156 12.4153 10.1656 12.2653C10.3156 12.1153 10.3999 11.9118 10.3999 11.6996V6.89961C10.3999 6.68744 10.3156 6.48395 10.1656 6.33392C10.0156 6.18389 9.81208 6.09961 9.5999 6.09961Z" fill="#7354E8"/>
</g>
</svg>
