<svg xmlns="http://www.w3.org/2000/svg" width="16" height="17" viewBox="0 0 16 17" fill="none">
  <path d="M10.7314 4.99188C10.7314 6.4491 9.51963 7.64977 8.00065 7.64977C6.48167 7.64977 5.26988 6.4491 5.26988 4.99188C5.26988 3.53466 6.48167 2.33398 8.00065 2.33398C9.51963 2.33398 10.7314 3.53466 10.7314 4.99188ZM6.92393 9.35153C6.92406 9.35153 6.92419 9.35153 6.92431 9.35153H9.07699C9.07712 9.35153 9.07725 9.35153 9.07738 9.35153C9.90017 9.35259 10.6867 9.67265 11.2652 10.238C11.8433 10.8031 12.1663 11.5668 12.1673 12.3609V14.4656C12.1673 14.5153 12.1472 14.5655 12.1075 14.6042C12.0675 14.6434 12.0108 14.6673 11.9494 14.6673H4.05193C3.99049 14.6673 3.93381 14.6434 3.89377 14.6042C3.85411 14.5655 3.83398 14.5153 3.83398 14.4656V12.3606C3.83504 11.5666 4.1581 10.803 4.73615 10.238C5.31457 9.67265 6.10113 9.35259 6.92393 9.35153Z" fill="#6B7280" stroke="#6B7280"/>
</svg>