<svg width="10" height="14" viewBox="0 0 10 14" fill="none" xmlns="http://www.w3.org/2000/svg">
<path d="M7.73337 3.49188C7.73337 4.9491 6.52158 6.14977 5.0026 6.14977C3.48363 6.14977 2.27184 4.9491 2.27184 3.49188C2.27184 2.03466 3.48363 0.833984 5.0026 0.833984C6.52158 0.833984 7.73337 2.03466 7.73337 3.49188ZM3.92588 7.85153C3.92601 7.85153 3.92614 7.85153 3.92627 7.85153H6.07894C6.07907 7.85153 6.0792 7.85153 6.07933 7.85153C6.90212 7.85259 7.68869 8.17265 8.2671 8.73802C8.84523 9.3031 9.1683 10.0668 9.16927 10.8609V12.9656C9.16927 13.0153 9.14915 13.0655 9.10949 13.1042C9.06945 13.1434 9.01276 13.1673 8.95132 13.1673H1.05389C0.992447 13.1673 0.935759 13.1434 0.895719 13.1042C0.856062 13.0655 0.835938 13.0153 0.835938 12.9656V10.8606C0.836993 10.0666 1.16006 9.30303 1.73811 8.73802C2.31652 8.17265 3.10309 7.85259 3.92588 7.85153Z" fill="#6B7280" stroke="#6B7280"/>
</svg>
